<svg xmlns="http://www.w3.org/2000/svg" xmlns:xlink="http://www.w3.org/1999/xlink" id="Layer_1" viewBox="0 0 3233 568"><defs><linearGradient id="linear-gradient" x1="109" x2="126" y1="507" y2="507" gradientUnits="userSpaceOnUse"><stop offset="0" stop-color="#2d2c2b"/><stop offset="0" stop-color="#343332"/><stop offset="0" stop-color="#3e3e3e"/><stop offset="0" stop-color="#454545"/><stop offset="0" stop-color="#474747"/><stop offset="1" stop-color="#191919"/></linearGradient><linearGradient xlink:href="#linear-gradient" id="linear-gradient1" x1="180" x2="192" y1="508" y2="508"/><linearGradient xlink:href="#linear-gradient" id="linear-gradient2" x1="200" x2="209" y1="507" y2="507"/><linearGradient id="linear-gradient3" x1="297" x2="318" y1="507" y2="507" gradientUnits="userSpaceOnUse"><stop offset="0" stop-color="#2d2c2b"/><stop offset="0" stop-color="#343332"/><stop offset="0" stop-color="#3e3e3e"/><stop offset="0" stop-color="#454545"/><stop offset="0" stop-color="#474747"/><stop offset="1" stop-color="#191919"/></linearGradient><linearGradient id="linear-gradient4" x1="288" x2="356" y1="192" y2="231" gradientUnits="userSpaceOnUse"><stop offset="0" stop-color="#7e6130"/><stop offset="0" stop-color="#9e7e4a"/><stop offset="0" stop-color="#ab8a55"/><stop offset="0" stop-color="#a3834f"/><stop offset="1" stop-color="#876938"/><stop offset="1" stop-color="#7d6030"/></linearGradient><linearGradient id="linear-gradient5" x1="345" x2="418" y1="357" y2="357" gradientUnits="userSpaceOnUse"><stop offset="0" stop-color="#7d6030"/><stop offset="0" stop-color="#8f6f3c"/><stop offset="0" stop-color="#a07d47"/><stop offset="0" stop-color="#ac864f"/><stop offset="0" stop-color="#b38c53"/><stop offset="0" stop-color="#b58e55"/><stop offset="1" stop-color="#846635"/></linearGradient><linearGradient id="linear-gradient6" x1="420" x2="511" y1="387" y2="387" gradientUnits="userSpaceOnUse"><stop offset="0" stop-color="#7d6030"/><stop offset="0" stop-color="#8f703e"/><stop offset="0" stop-color="#a3834f"/><stop offset="0" stop-color="#ab8a55"/><stop offset="1" stop-color="#977745"/><stop offset="1" stop-color="#836635"/><stop offset="1" stop-color="#7d6030"/></linearGradient><linearGradient xlink:href="#linear-gradient" id="linear-gradient7" x1="501" x2="522" y1="522" y2="522"/><linearGradient id="linear-gradient8" x1="304" x2="319" y1="522" y2="522" gradientUnits="userSpaceOnUse"><stop offset="0"/><stop offset="0" stop-color="#474747"/><stop offset="0" stop-color="#373737"/><stop offset="1" stop-color="#1e1e1e"/><stop offset="1" stop-color="#0d0d0d"/><stop offset="1" stop-color="#030303"/><stop offset="1"/></linearGradient><radialGradient id="radial-gradient" cx="562" cy="508" r="59" fx="562" fy="508" gradientTransform="matrix(3.2 0 0 3.62 -1484 -1299)" gradientUnits="userSpaceOnUse"><stop offset="0" stop-color="#afa6a0"/><stop offset="1" stop-color="#ada198"/></radialGradient><radialGradient id="radial-gradient1" cx="320" cy="237" r="14" fx="313" fy="237" gradientTransform="matrix(1 0 0 1.06 0 -15)" gradientUnits="userSpaceOnUse"><stop offset="0" stop-color="#ab8a55"/><stop offset="0" stop-color="#977745"/><stop offset="1" stop-color="#836635"/><stop offset="1" stop-color="#7d6030"/></radialGradient><radialGradient id="radial-gradient2" cx="429" cy="402" r="59" fx="429" fy="402" gradientUnits="userSpaceOnUse"><stop offset="0" stop-color="#9d948d"/><stop offset="1" stop-color="#ada198"/></radialGradient><radialGradient id="radial-gradient3" cx="382" cy="312" r="8" fx="382" fy="312" gradientUnits="userSpaceOnUse"><stop offset="0" stop-color="#ab8a55"/><stop offset="0" stop-color="#977745"/><stop offset="1" stop-color="#836635"/><stop offset="1" stop-color="#7d6030"/></radialGradient><style>.st0{fill:#383635}.st3{fill:#b0a69c}.st12{fill:#b2a79d}.st16{fill:#b5aba1}.st21{fill:#a3988e}.st30{fill:#bcb2a9}.st35{fill:#f4f4f3}.st36{fill:#968c82}.st41{fill:#b9aea5}.st54{fill:#c4bab1}.st61{stroke-miterlimit:10;fill:none}.st68{fill:#e9e4de}.st69{fill:#32302f}.st78{fill:#e5dfd9}.st86{fill:#92867d}.st90{fill:#a0958b}.st91{fill:#b1a69c}.st93{fill:#978b82}.st94{fill:#999b6a}.st95{fill:#f1efeb}.st97{fill:#363231}.st98{fill:#94887e}.st99{fill:#5c5f35}.st101{fill:#bda992}.st103{fill:#beb4ac}.st111{fill:#b7ada3}.st117{fill:#c5bbb3}.st120{fill:#ebe7e2}.st123{fill:#a6834b}.st124{fill:#b9afa6}.st128{fill:#f6f6f6}.st131{fill:#f4f4f4}.st132{fill:#d4cbc3}.st133{fill:#bcb1a7}.st135{fill:#2e2b29}.st138{fill:#3a3836}.st141{fill:#c0b5ac}.st143{fill:#f8f7f5}.st146{fill:#a49a90}.st154{fill:#aba097}.st155{fill:#737648}.st157{fill:#b5aaa1}.st158{fill:#9e9389}.st166{fill:#aca198}.st167{fill:#2d2b29}.st174{fill:#a89d94}.st180{fill:#e7e1dd}.st184{fill:#7f8257}.st190{fill:#aa9f96}.st191{fill:#ada299}.st194{fill:#2a2624}.st196{fill:#b6a28b}.st197{fill:#bbb0a7}.st199{fill:#a69b92}.st200{fill:#afa49a}.st201{fill:#bfb6ac}.st206{fill:#c5bbb2}.st207{fill:#afa69d}.st209{fill:#939569}.st210{isolation:isolate}.st212{fill:#2b2625}.st217{fill:#6a693d}.st218{fill:#c6bdb4}.st220{fill:#eae6e1}.st221{fill:#b9aea4}.st223{fill:#7a7c4e}.st228{fill:#968a81}.st229{fill:#c4bbb2}.st232{fill:#988c82}.st234{fill:#828456}.st237{fill:#d4ccc3}.st239{fill:#9a8f85}.st243{fill:#2b2926}.st247{fill:#292725}.st249{fill:#ccc4bb}.st250{fill:#7c7f51}.st253{fill:#262421}.st261{fill:#a79d93}.st262{fill:#e8e3dd}.st271{fill:#ad9983}.st274{fill:#b8aea5}.st275{fill:#b0a59b}.st283{fill:#312d2a}.st286{fill:#22201f}.st288{fill:#b3a89f}.st291{fill:#c3b9b0}.st295{fill:#8b7f76}.st297{fill:#bdb3aa}.st308{fill:#c0b6ad}.st309{fill:#b8ada4}.st313{fill:#e9e4df}.st314{fill:#5e6237}.st319{fill:#f5f4f4}.st324{fill:#bdb2a9}.st327{fill:#bab1a8}.st331{fill:#6d6f42}.st336{fill:#b1a89e}.st343{fill:#d8d1c9}.st344{fill:#9d9288}.st346{fill:#9c9288}.st349{fill:#ccc3ba}.st350{fill:#9d9187}.st352{fill:#bbb1a8}.st363{fill:#e1dad5}.st364{fill:#34302e}.st369{fill:#2d2c2b}.st370{fill:#c8bfb5}.st372{fill:#8b7f75}.st61{stroke-width:3px}.st378{fill:#37332e}.st383{fill:#bcb2a8}.st391{fill:#707348}.st393{fill:#aca097}.st394{fill:#302e2a}.st397{fill:#d0c8bf}.st402{fill:#b7aca3}.st408{fill:#b5aba2}.st420{fill:#383633}.st421{fill:#f5f5f5}.st422{fill:#a69b91}.st427{fill:#968b81}.st428{fill:#e5ded7}.st429{fill:#ada298}.st430{fill:#b5aaa0}.st432{fill:#b2a79e}.st440{fill:#90847a}.st441{fill:#797d4c}.st61{stroke:#a78852}.st443{fill:#c2b7ae}.st447{fill:#c1b7ae}.st454{fill:#b4a9a0}.st458{fill:#c2b8af}.st460{fill:#9c9187}.st461{fill:#baafa6}.st466{fill:#696a3e}.st467{fill:#a2978e}.st469{fill:#7a694c}.st470{fill:#b9afa5}.st473{fill:#62615f}.st474{fill:#afa49b}.st477{fill:#a18a6f}.st489{fill:#b6aba2}.st493{fill:#413937}.st494{fill:#cdc4bb}.st496{fill:#312f2c}.st498{fill:#91867d}.st505{fill:#787b4d}.st506{fill:#978c82}.st511{fill:#c6bdb3}.st515{fill:#f7f7f5}.st517{fill:#91857c}.st525{fill:#90847b}.st531{fill:#91867c}.st533{fill:#f7f6f5}.st534{fill:#aca197}.st538{fill:#b3a9a0}.st544{fill:#a0968b}.st546{fill:#2f2d2b}.st550{fill:#b6aca3}.st556{fill:#aba096}.st557{fill:#d5cdc5}</style></defs><g class="st210"><path d="M855 447q6 5 11 5v7a1093 1093 0 0 0-103 0v-7q13 0 19-3 5-3 5-9t-4-16l-20-56h-74l-9 23q-9 24-9 38 0 12 7 18 8 5 23 5v7h-68v-7q17-3 29-35l77-199h24l82 212q4 12 10 17M727 270l-35 91h68zm379 189q-11 5-25 5-20 0-31-9-12-8-15-28l-6-34q-3-16-7-26-3-10-9-16t-16-6h-22v78l2 19q1 5 7 7 5 3 16 3v7a996 996 0 0 0-104 0v-7q11 0 16-3 6-2 7-7 3-6 2-19V255q0-13-2-19c-2-6-3-6-7-8s-9-2-16-2v-7a975 975 0 0 0 104 0q47 0 71 16 24 15 23 43 0 15-7 29-6 14-24 23-16 11-45 14 21 1 34 7 14 5 21 14t10 23l8 35q3 14 6 19 4 6 10 6l7-2 7-6 5 4q-10 11-20 15m-87-128q10-7 15-20 4-12 4-29 0-28-10-42-9-14-32-14l-13 2q-4 2-6 9l-2 18v83h15q18 0 29-7m348 128q-10 5-25 5-19 0-31-9-10-8-15-28l-6-34-6-26q-3-10-9-16-7-6-16-6h-22v78l1 19q3 5 7 7 5 3 17 3v7a996 996 0 0 0-105 0v-7q12 0 17-3 5-2 7-7l2-19V255l-2-19q-2-6-7-8-6-2-17-2v-7a975 975 0 0 0 105 0q47 0 70 16 24 15 24 43 0 15-7 29-8 14-24 23-18 11-45 14 21 1 34 7 12 5 20 14c8 9 9 14 11 23l8 35q2 14 6 19 4 6 10 6l7-2 6-6 5 4q-9 11-20 15m-86-128q11-7 15-20 4-12 4-29 0-28-10-42t-32-14l-14 2q-5 2-6 9l-1 18v83h14q20 0 30-7m324 76q0 31 2 52l-78-1-110 1v-7q12 0 16-3 6-2 7-7 3-6 2-19V255q1-13-2-19c-3-6-3-6-7-8s-8-2-16-2v-7h181a611 611 0 0 0-1 73h-8q-3-24-10-39-7-14-19-20-10-6-27-6h-13l-16 1q-5 2-6 7l-2 16v84h11q18 0 27-13 10-14 13-32h8l-1 32v16l2 48h-8q-6-44-41-44h-11v85l2 16q2 5 6 6l16 2h16q24 0 39-16 15-17 21-56h8zm97-187h10l53-1q68 0 99 30c31 30 33 49 33 87q0 37-16 65-16 27-46 43-31 15-73 15l-49-1-52 1v-7q11 0 16-3 6-2 7-7 3-6 2-19V255q1-13-2-19-1-6-7-8-7-2-16-2v-7zm40 222q2 6 7 8 6 3 16 3 29 0 45-13c16-13 19-22 24-39q7-25 7-63c0-38-3-47-8-64s-13-28-24-37q-17-12-44-12-10 0-16 3-5 2-7 8l-2 18v170zm395-213q27 14 42 42 15 27 14 66c-1 39-5 47-15 66q-15 29-42 45-28 16-63 16c-35 0-44-5-62-15q-28-15-42-42-15-29-15-66c0-37 5-47 15-66q15-28 43-45 27-16 62-16c35 0 45 5 63 15m-97 6q-15 16-22 43a227 227 0 0 0 1 124q8 26 23 41t33 15c18 0 23-5 33-16s16-24 22-42 7-38 7-62-3-44-8-62q-9-26-24-41t-32-15c-17 0-24 5-33 15" class="st210" style="fill:#fff"/><path d="m2559 214 26-1v7q-8 3-17 13-8 9-14 27l-72 193h-23l-87-212q-3-11-10-16-5-5-11-5v-7a1097 1097 0 0 0 103 0v7q-12 0-18 3-6 2-6 9 0 6 5 16l59 152 42-113q9-26 9-41 0-14-7-20t-21-6v-7zm149 8q-4 3-7 8l-1 19v168l1 18q3 6 7 8 6 3 17 3v7a996 996 0 0 0-105 0v-7q11 0 17-3 4-2 7-8l2-18V249l-2-19q-2-6-7-8l-17-2v-7a1022 1022 0 0 0 105 0v7zm66 48-2-57 104 1 105-1a828 828 0 0 0-2 83h-7q-6-28-14-45-8-15-19-23-12-7-28-7h-8v193q0 14 3 21 3 6 10 9l23 2v7l-64-1-62 1v-7l23-2q8-2 10-9 3-7 3-21V221h-7q-16 0-28 7-11 6-19 23t-14 45h-8zm440 171q6 5 11 5v7a1093 1093 0 0 0-103 0v-7q13 0 19-3 5-3 5-9t-4-16l-20-56h-74l-9 23q-9 24-9 38 0 12 7 18 8 5 23 5v7h-68v-7q17-3 29-36l77-198h24l82 212q4 12 10 17m-128-177-35 91h68z" class="st210" style="fill:#a78955"/></g><path d="M305 94c-13 1-102 8-161 85-49 63-46 133-45 150" class="st61"/><path d="M582 537c0 6-134 15-266 15s-267-9-267-15c0-7 170-10 267-10s266 3 266 10" style="fill:url(#radial-gradient)"/><path d="M333 93a222 222 0 0 1 215 208c3 64-22 111-32 128" class="st61"/><path d="M319 178V39h3v138" style="fill:#060606"/><path d="M395 257q0-2 2 0l-8 21q-1 4 1 7l-4 9-1 3-2 5-1 6-1 2h-2v-1q0-4 2-5l1-4 2-8 1-5 1 1v-1l1-8 1-2 1-5 2-6 1-2v-2q0-6 3-5" class="st101"/><path d="m415 269-4 2-8 8-7 6q-9 10-11 24v3h-2q1-11 5-20 1-5 6-8l16-14h1q1-2 4-2z" style="fill:#6b573f"/><path d="m427 264 2 1-1 1 5 4 5 1 2 5h-3q-4 1-3-2l-2-2-11-1c2 1 8 3 4 3l-7-3q-2-1 1-2v-3q0-2 5-2z" style="fill:#686c40"/><path d="m437 195 1 1-1 4c4 2 6-2 10 0l-2 1 3 1h-6q-3 3-7 2-1 3-3 2l-2 1q0 3-2 2l-1 1h-2l1-1q0-3 3-4-1-2 2-3 0-3 3-4 0-3 3-3" style="fill:#f9f9f8"/><path d="m393 281 3-2v2l-3 2q-5 5-8 11l3-9-1-1 2-9 6-19-1 2v-1q-2-2 1-2 0-3 2-3l6-13h2v1q-11 18-15 38-2 6 2 3" class="st271"/><path d="m182 321 6 1h1l6 2h1l2 1q18 5 30 18h-1l-4-2-4-5q-4-1-7-4l-9-3-1-1-17-4-4-2q-2-1 1-1" style="fill:#1a1818"/><path d="m413 227 1 1-7 14q-1 6-5 11l-1 2q0 2-2 3v2l-2 4q0 2-1 1h-1v-1l16-34 1-2q-2-2 1-2z" style="fill:#705d44"/><path d="m374 315-2-3h-2l7-1 4 1h2l-4 1" style="fill:#c9a76f"/><path d="M413 218q-1-1 0 0-2 0-2-3v-1h-2v-1h-1q-2 2-2-1c-3-2 1-3 1-2l3-4q-1-3 3-3c2 4 2 12 0 15" style="fill:#717346"/><path d="m105 319-1 1c-12 2-24 8-22 21l-1 1v1c-2 2-2-2-1-3h-1v2l-1 3v2-3q0-8 4-15 1-4 5-6 4-3 8-3h1q0-1 0 0l3-1z" style="fill:#1f1c19"/><path d="M455 161v1q2 9-4 11-3 4-2 0v-2h-1l-5 8-1-1q-1-5 4-7l5-7q0-4 4-3" style="fill:#838556"/><path d="m397 238-2-3q2 5-1 3v-4q-2-3-2-7v-1l2-1q-1-3 1-3z" class="st505"/><path d="m431 187 1 3 1 1v4l-5 7-1 1v-1l-1-1q3-7 3-14v-1q1 1 1-2h1z" style="fill:#f5f5f2"/><path d="m409 225 1 3h1l-5 11-8 13v-1q-1-2 2-4-2-2 1-2l1-3v-1l2-3q4-7 4-14z" style="fill:#c0ac95"/><path d="m429 186-1 7q-2 9-3 3h-2v-7q0-5 2-2 0 4 2-3h1z" class="st99"/><path d="M91 444q2 12 7 23l1 4q3 2 3 5v1q-4-1-4-5c-4-7-7-20-9-28zq1-1 1 1" style="fill:#201e1c"/><path d="m103 477 11 5 1 1q0-1 0 0h2s0 7-2 7l-1-3v-3l-11-5-5-5 1-2z" class="st128"/><path d="M457 184q0 3-2 3h-3q-1 2-4 1l-4 2q-2 0-1-1l2-1-2-2v-1l4-2h3l-1-1z" style="fill:#827f55"/><path d="M438 175v8l-2 6-2 3v1c1 3-2 0-1-2l-1-1q-1-4 1-6v1l3-3 1-6q-2-3 0-3z" style="fill:#64653c"/><path d="m432 272-5 1q4 3 5-1 2 1 2 4h3-5l-7-2h1l-6-2 1-2z" style="fill:#787c4d"/><path d="m428 219 5 2-2 1c0 2-5 2-6 1h-4q-2 0-2-2 4-5 9-2" style="fill:#74764c"/><path d="M419 252q2 6-3 8-2 3-2-3l1-2-1-1 3-6 1-1z" class="st234"/><path d="M448 208h7v1l-5 2h-8c-2-1-7-1-7 2h-3q-3-1-1-2c2-2 14-3 17-3" class="st314"/><path d="m435 213-2-1 3-1 6-1h9l-1 1q-3 3-8 2h-2q-1-2-4 0z" style="fill:#717446"/><path d="M402 241v1l-2 2-2-2 1 4q1 3-2 3-3-1-1-4-2 0 0-2v-5h1v2l1-7v5z" style="fill:#f7f7f6"/><path d="m419 252 1 2v-2q-1 3 3 4 0 3-2 2-3 2-2 3l-1 1c1 1-5 5-5 4v-1q-1-2 2-3-1-2 1-2z" class="st143"/><path d="M420 177v2l1 12c0 2 0 6-2 4l-1-3v-10z" style="fill:#919260"/><path d="M382 227q4 1 4 3l2 3q1 3-3 2-3-2-5-6-3-1-2-4z" style="fill:#9e9d6f"/><path d="M379 298v2l-1-1-2-3c-2-3-2-9 3-8z" style="fill:#5f633a"/><path d="M442 202h7q1 3-2 3l-11 1q-3 0-1-2z" style="fill:#929364"/><path d="M426 206q-1 5-4 6l-4 7h-1q-3 5-2 0l10-14z" style="fill:#af9c85"/><path d="m455 161-2 1-11 14v8l-1 2-1 1v-2q-2 0 0 0l1-4v-3l2-7q5-4 7-9 2-2 5-1" style="fill:#8a8d5b"/><path d="m396 255-1 2-3 5v-4q-3 0-1-3h-1v-4q0-1 0 0l5 1zv-4q2 1 1 5" class="st515"/><path d="m450 162 1 1-6 8h-2q1-8 7-9" style="fill:#a6a775"/><path d="M426 180c0 1 2 8-1 8l-1-1-3-9v-3z" style="fill:#818454"/><path d="m449 202 2 1q2 2-2 3h-5l-4 1c-2 1-8 2-8 0v-1l3-2v1l9-1h4z" style="fill:#838555"/><path d="M369 276v2q-1 5 3 9c0 1 1 5-1 3q-5-6-5-15z" style="fill:#888a5a"/><path d="m369 279 5 8 3-1 1 2q-1 4-3 1l2 6-3-5 1 6-3-3q1-6-3-11z" style="fill:#6f7245"/><path d="M376 283c0 6-5 1-5-2l-2-2v-1l-1-2h1q5 2 7 7" class="st94"/><path d="m407 242 1 1q0 4-3 7 3-1 3 1-2-1-4 1h2c-1 2-5 4-4 1z" style="fill:#f8f8f7"/><path d="m421 223 8-2v1l-3 1 5-1c1-2 5 1 3 2q-9 0-16 2z" style="fill:#7f8152"/><path d="M419 266q7 0 12 3l-12-2 1 1-2 2-3-2v-1l2-2z" style="fill:#565830"/><path d="m448 207-13 2-4 2 1 1-5-1v-1l3-1q1-2 3-1 4-3 9-1l2-1z" style="fill:#4f522a"/><path d="m421 175 4 12h1v-7l2 5-2 6q-3 0-2-4l-1 3v-1q-2-3-1-8l-1 2v14l-1 1-1-3h1v-20z" style="fill:#7a7d4d"/><path d="M432 266q0 4 4 3l2 2c-3 2-6-2-9-3l-6-2 6-1z" class="st250"/><path d="M316 404c-2 0-4-5-5-7l-4-2-4-3q-2 1-3-2h-2q-2-2 1-1l4 1c5 2 13 8 13 14" style="fill:#1f1d1d"/><path d="m423 214 3-1-2 2q1 3 3 2l-1 1 2 1q-5-1-9 2-2-2 1-3z" class="st515"/><path d="M387 312h2v2m1 2q-1-3 3-4" style="fill:#8d6e3a"/><path d="m375 223 4 7 1 3 6 7-1 1-3-2-4-6q0-3-3-5l-1-3v-3z" style="fill:#757749"/><path d="m404 207 2 7 3 10h-1l-4-6-1-8c0-1-1-6 1-3" style="fill:#4e522c"/><path d="M240 361v2l-2-1-8-14v-1q-2 0-1-1-2 0-2-3h1z" style="fill:#201e1e"/><path d="M159 317h1l3 1 6 1q3-2 5 1h2q3-2 3 1h3-1v1l-23-3-2-1z" style="fill:#272626"/><path d="M79 358v11l3 31v2q3 1 0 3v1-1l-1-3v-6l-1-2v-7l-1-3v-11l-1-12z" style="fill:#272524"/><path d="M396 265v2l-3 10q-1 1 1 4h-1q-1 2-3 1c-1-2 3-14 4-17z" style="fill:#65523b"/><path d="m380 231 5 5v1l5 5-1 1-4-2-2-4-4-5z" style="fill:#62643a"/><path d="M392 217v5h-1l-1-3h-1l1-2-1 11-1-2q0-9-1-1v-4l2-6 1-2z" style="fill:#878a5a"/><path d="m443 186 2 1h6l-6 2-7 2v-1c-1 0 1-4 2-2h1v-1z" style="fill:#6d6d43"/><path d="M374 225c0 3 0 1 1 2q4 4 4 8c1 1 5 2 3 4q-3-2-5-6l-2-4z" style="fill:#858657"/><path d="M386 248v5l2 4v1l-2-1-4-7-1-4z" style="fill:#848557"/><path d="M317 405q2-1 0 0v1l1 1v3q2 1 1 3v3q3 2 1 6l-1 3h-1l-2-18v-1l-1-1 1-1z" class="st253"/><path d="m369 279 2 1q1 3 4 5l1-2 1 3q-1 2-2 1l-1 2z" style="fill:#888b59"/><path d="M391 222v-5l1 2v-2l2 5v4h-3z" style="fill:#949867"/><path d="M405 254h2l-3 5q-3 1-1-1v-1q-3 3-4 2l2-4z" style="fill:#898b5f"/><path d="m281 383 17 6v1q-4 0-7-3l-4-1c-1 1-6-1-7-3z" style="fill:#1f1e1e"/><path d="M403 190q1 3-1 6 0 1 0 0l-1 8c0 1-1 5-2 2v-2l-1-6 2-2 2-5z" style="fill:#996"/><path d="M456 206c1 3-6 2-7 1q-3 0 0-1l2-2-1-1h1z" style="fill:#67693e"/><path d="m382 227 3-1v-3l2 7v-2h1v5q0 2 0 0z" class="st143"/><path d="m416 222-3 4-1 2-1 2-1 2-4 7 4-10v-3l2-3q-1-2 1-2h1l1-2v2l2-2q2 2-1 3" style="fill:#a39077"/><path d="m86 424-3-18v-1l1 1 3 17z" style="fill:#2b2826"/><path d="M369 279v1c1 5 5 6 4 12l-1 1-1-3h1c0-4-5-8-3-12z" style="fill:#7c7f4f"/><path d="M422 181v20l-2-3c3-6 0-13 1-20z" style="fill:#6b6f41"/><path d="M134 316q2 0 0 0h-6l-5 1h-3l-4-1 3-1z" class="st421"/><path d="M403 196v18h-1l-2-6q2-4 1-10l1-2z" style="fill:#78794a"/><path d="M404 207q2 6 1 11l-1-2v-18z" style="fill:#5d5f34"/><path d="M402 191c0 4-4 8-2 13l-1-6v6q-2-7 3-13" style="fill:#a8a775"/><path d="m413 203-2 6-1-1 2-4-2 2h-1v-2q-3-2 0-3z" style="fill:#897c52"/><path d="m423 190 1 3v11l-2-2 1-13z" style="fill:#51552c"/><path d="m408 198-1 4q1 4-2 5l-1-8q3 0 3-4h1z" style="fill:#5b5f36"/><path d="M120 317h7q2 0 0 0-7 3-16 2l-2-1h2l2-1z" style="fill:#262423"/><path d="m417 248-2 7-2 1q-2 3-2-1l2-3z" style="fill:#919364"/><path d="M455 162q2 5-1 10l-1 1-1 1-2 2h-1q-1-2 2-3l3-2z" style="fill:#6f7347"/><path d="m386 248 2 2q5 3-1 4l-1-1-2-4z" style="fill:#8f9162"/><path d="M452 188q4 0 4 2l-7 2-5 1v-1l4-3z" style="fill:#96986a"/><path d="M134 316h16l4 1h5l-3 1h-1l-3-1q-1 3-3 0h-22l1-1z" class="st167"/><path d="m404 259-8 8v-2l1-1q1-4 6-6z" style="fill:#828458"/><path d="m435 213 2-2c3-1 4 2 6 1l-3 1h2z" class="st441"/><path d="m423 189-1 13v-21z" style="fill:#5e6136"/><path d="M411 214q-1 4 1 7v1l-2 2q-1 3-1 0h-1 1l-1-5v-4l1-1 1-3z" style="fill:#5f5f36"/><path d="M409 201v3l-3 4q-2 3-1-1 3-3 1-5l2-4z" style="fill:#565b35"/><path d="m433 221 5 3h-4l-3-2v-1z" style="fill:#606339"/><path d="m435 170 1 3v5l-2 4v-1l-1-2q-1-3 1-6v-3z" style="fill:#848456"/><path d="M379 309h2v-2h1l-1 4c-1 0-5 1-4-1l1-5q2 0 1 3" style="fill:#a4907a"/><path d="M408 195q0 3-3 5-1 1-1-1v-2l2-5h1z" style="fill:#6f7349"/><path d="m449 183 4 1 1 1h-8l1-1z" style="fill:#8e9162"/><path d="m412 267-2 2-6 6h-1l-1-1 2-2z" style="fill:#b09c84"/><path d="m245 367 2 2 1 1q1 1-1 1t-5-3l-3-4v-2q4 1 5 5" style="fill:#272525"/><path d="M453 173q-2 8-10 10l1-3q2 2 4-1z" style="fill:#585d35"/><path d="M378 300q0 2 3 2v2l-2 5-1-3-1-7z" style="fill:#ac9882"/><path d="m525 408-2 5-1-4 1-4z" style="fill:#f9f8f8"/><path d="m402 196-1 12h-1l-1-2h1c2-3-1-7 2-10" style="fill:#8c8d5a"/><path d="M188 322c3-2 4 2 8 0l-1 2z" class="st128"/><path d="m390 251 1 4q0 4-2 2-2-1-2-3v-2l3 1-2-3z" class="st184"/><path d="m440 187-2 2-3 4-1-1v-1l3-3 2-3 1-1z" style="fill:#a79075"/><path d="m434 173-3 10v1h-1q-1-7 4-13z" style="fill:#a7a87b"/><path d="m414 257 1 3h1l-1 2-1 1c-1-2-2 2-2 3v1h-1v-7q2-2 2 0l1-1z" style="fill:#686b43"/><path d="M444 191q0 2-3 2l-2 1-2-1q1-3 6-3z" class="st441"/><path d="m436 276 3 1v1h-9l-1-1 3-1z" class="st515"/><path d="m456 206 1 2-2 1q-3-2-5-1h-2v-1h1q4 1 7-1" style="fill:#4c502b"/><path d="M240 361h1l4 4v2l-5-5z" class="st319"/><path d="m406 190 1 2-2 6-1-1 1-7q-1-2 1 0" style="fill:#7d8056"/><path d="M378 225q0 3 2 4v2l-1-1q-3-3-4-7z" style="fill:#8c8d5e"/><path d="M390 242h3q2 1 1 3h-1l-4-2zq-1-1 0 0" style="fill:#545332"/><path d="m426 258-1 5h1q-2 1-3-1v-2z" class="st533"/><path d="m420 223 1 1-3 2-4 2-1-1q0-2 1-1z" style="fill:#7c7d53"/><path d="m457 184 1 7h-1l-1-1-4-2h3z" style="fill:#6d6342"/><path d="m403 216-1-2 1-9v6q2 3 0 5" class="st466"/><path d="m421 263 1 1zh3l-5 2h-2q-2 2 0 0-1-2 2-2 0-2 2-1" class="st533"/><path d="M426 206v3l-1 1v1h2v1h-5z" style="fill:#7e684b"/><path d="m432 266 2 1 2 2c1 2-3 1-3 0q-2-1-1-3" style="fill:#898b5a"/><path d="m396 246 2 5v1l-2 3-1-5v-4z" style="fill:#a69179"/><path d="m382 250 1 1 3 6q-3-3-4-7" style="fill:#9c9c6d"/><path d="M448 189v2l-4 2h-3l3-2z" style="fill:#8c8f62"/><path d="m169 319 5-2 2 2-2 1z" class="st131"/><path d="M406 190q-1-1-1 1l-1 6q-2-2 0-6l-1-1v-1l2-1z" style="fill:#87895f"/><path d="M389 257v-2l1 2 1-2 1 3-1 3h-1v-1z" class="st391"/><path d="M379 298v4l2-3 1 1-1 2-2 1-1-3z" style="fill:#877357"/><path d="m404 275-3 2v-1l5-4-1 3" style="fill:#c4b29e"/><path d="m386 288 2-8z" style="fill:#b4a089"/><path d="M426 254q1 3-1 2 0 3-1 1l-1 2-1 1c-2 3-5 0-1-2l2-2h1z" style="fill:#ab967b"/><path d="M435 170h2v6l-1 1v-4q-2 1-1-3" class="st223"/><path d="m456 190 1 1-8 1c1-4 5-2 7-2" style="fill:#a2a478"/><path d="m415 255-1 2v1l-1-1q-1 4-2 2v-4l1 2 1-2z" style="fill:#878859"/><path d="m424 259-1 1v2l-2 1-2 1v-3l3-1 1-1z" style="fill:#7d664e"/><path d="M375 229c2-1 3 3 3 4h-1z" style="fill:#989867"/><path d="M260 377c-1 2-6-1-6-3h1z" style="fill:#282626"/><path d="m397 281 1-1v-1l3-2 3-2h1z" class="st101"/><path d="M382 300q0 2 0 0l3-7z" style="fill:#ae9d89"/><path d="M79 348v10zl1-4z" class="st369"/><path d="M407 254h-2q-1-1 1-2l1-1q2 2 0 3" style="fill:#858a60"/><path d="m111 318-3-1 6-1-1 1z" class="st421"/><path d="m424 212-1 2-3 4h-1l4-6z" style="fill:#6c5840"/><path d="M392 258v5q0 3-1 0l-1-3 1-3z" style="fill:#6c6c44"/><path d="M414 259v1l-1-1q-3 2-2 4v-4q2 0 2-2z" style="fill:#75774c"/><path d="m176 320 4-2 1 2-2 1z" class="st131"/><path d="M89 439v2l-1-7q3 2 1 5" style="fill:#1b1a18"/><path d="m411 215 1 2h1v3q-4 0-2-5" style="fill:#5e6135"/><path d="m79 373-1-12z" class="st546"/><path d="M281 383q-3 2-6-1l2-1z" style="fill:#31302f"/><path d="M396 245v1h-1l-2-1h1l1-1q0-2 1-1z" style="fill:#756545"/><path d="m196 324 4-1-2 2z" class="st128"/><path d="m389 215-1 4-1-1v6q-2-5 2-9" class="st209"/><path d="m109 318 2 1q-2 2-5 1l-1-1z" style="fill:#343230"/><path d="m413 252 3-4q0 3-3 4" style="fill:#bfc098"/><path d="M426 257v1l-3 2 1-1v-2z" style="fill:#6f573f"/><path d="M144 316h-10z" class="st69"/><path d="M79 358v-9z" style="fill:#0e0f0d"/><path d="m389 272-1 5z" style="fill:#bba68f"/><path d="M246 367h1l2 1-1 1z" class="st319"/><path d="m426 257 1-2h1z" style="fill:#9e8a70"/><path d="m264 378 3 1q2 1-1 1h-1q-2 2-2-1-1-1 1-1" style="fill:#2a2726"/><path d="m87 431-1-4q0-1 0 0 3 1 1 4" style="fill:#090806"/><path d="m437 189-3 4v-1z" class="st95"/><path d="m264 378-1 1q-3 1-4-2h1z" style="fill:#3c3a39"/><path d="m272 380-1-1 3 1zl2 1z" class="st131"/><path d="m90 443-1-3v-2q3 1 1 4" style="fill:#242522"/><path d="M400 277q-1 3-3 2z" style="fill:#c4b3a0"/><path d="M438 183v-8z" class="st95"/><path d="M254 374q-2 2-3-2h1z" style="fill:#343231"/><path d="m425 204-1 2v-4z" class="st99"/><path d="M526 406q0-3 2-4z" class="st35"/><path d="m387 254 2 3 1 2v1l-1-1-1-2-2-4z" style="fill:#6e7043"/><path d="M275 381q0 2-2-1z" style="fill:#0b0809"/><path d="M270 380q-2 2-3-1l1-1z" style="fill:#302e2d"/><path d="M548 298v3-5z" style="fill:#9b7941"/><path d="m439 194-2 1q-2-2 0-2z" class="st469"/><path d="m86 427-1-3h1z" style="fill:#040202"/><path d="M88 434v-3q0-1 0 0 3 1 1 3" style="fill:#373634"/><path d="M251 372q-2 2-2-1l1-1z" style="fill:#272625"/><path d="M445 179q-1 3-1 1l-1 3-1 2v-3q0-4 4-7c1 0 0 5-1 4" style="fill:#77774a"/><path d="M270 380h2v1q-2 3-3 0z" style="fill:#0c0b0b"/><path d="M269 378h-3v-1z" class="st131"/><path d="M79 381v-4z" class="st420"/><path d="m154 317-4-1z" class="st97"/><path d="m440 185-1 1-1-2z" class="st95"/><path d="M441 186v1h-1v-1z" style="fill:#6c543b"/><path d="M392 264v3l-1-1z" style="fill:#b19d84"/><path d="m434 267-2-1z" class="st250"/><path d="m442 185-1 1z" style="fill:#59482c"/><path d="M388 226v2h-1v-3l1-4z" class="st209"/><path d="m389 259-1-1v-1z" class="st184"/><path d="M441 181v-3z" class="st95"/><path d="M118 317h-3z" class="st421"/><path d="m80 387-1-3z" class="st420"/><path d="M261 376h-1l-1-1h2zm4 1q-3 1-2-1z" class="st131"/><path d="m414 221-1 1v-1q-3 0 0-1z" style="fill:#cfc9b9"/><path d="M80 392v-3zm1 5-1-3z" class="st0"/><path d="m163 318-3-1z" class="st167"/><path d="M81 401v-3z" class="st138"/><path d="m317 403-1-2h1z" class="st35"/><path d="M427 264h-2z" class="st533"/><path d="m82 405-1-3z" style="fill:#32312e"/><path d="M317 406h205v108h-1V408l-1-1z" style="fill:#0b0a0a"/><path d="M389 312h4" style="fill:#826434"/><path d="m372 312 3 3" style="fill:#c29e67"/><path d="M385 312h-2 3" class="st123"/><path d="M394 283v1l-6 8-6 20h-1l1-4 1-6 2-5 1-3 6-10z" style="fill:#968068"/><path d="m383 302 2-5z" class="st196"/><path d="m386 288-1 3zh1z" style="fill:#9e866c"/><path d="m382 300-1 4v-2z" class="st196"/><path d="M392 262v-4z" class="st391"/><path d="m381 310-1 1-1-1z" class="st196"/><path d="m411 269-8 7-9 7v-1l3-2q4-2 6-6h1l5-5z" style="fill:#8a745d"/><path d="M383 312q2-11 6-20z" style="fill:#7b664e"/><path d="m419 263-2 2-2 2-4 2v-1l2-2c-1-1 4-4 5-4z" style="fill:#715c43"/><path d="M432 206q3 2 8 0h9v1h-5l-2 1-9 1q-3 0-3-2z" class="st331"/><path d="m445 189-2 1-6 3-1 1 1 1-3 3c-2 1 0-4 0-4h1l3-4z" style="fill:#5f5d33"/><path d="m430 207 4 1-1 1-3 1q-3 0-2-1z" style="fill:#53552e"/><path d="M433 191v3h1v-1l1 1-1 4-3 4q-3 0-1-1v-1l3-6z" class="st469"/><path d="m431 202-2 3h-2l2-3q-1-2 1-1z" style="fill:#846e55"/><path d="m429 205-3 4v-3l1-1z" style="fill:#705e44"/><path d="M447 202h-5z" style="fill:#828757"/><path d="M427 211h-3l1-1h2z" style="fill:#9a916c"/><path d="m430 210-3 1v-1l1-1z" class="st331"/><path d="m395 265-4 17 2-1-3 2v-7q6-19 16-37l4-7-8 16z" style="fill:#806c53"/><path d="M141 317h11l3 1h1l25 4 31 11h-1l-10-2-3-3q-3 0-5-2h-1q-2 2-2-1l-4 1-3-1v-1a58 58 0 0 0-22-2l-3-1h-3l-3-1h-18v1l-13 1c-13 1-29 3-35 15l-2 1-1 3v1q1 3-1 1c0-6-1-7 2-12q9-10 22-11l5-1 16-2z" style="fill:#ede9e4"/><path d="M166 322q10-1 17 3l3 1 4-1 2 1 1 2v-1l5 1 4 1v1q5 0 10 3 4 3 7 3l8 7 2 3q-2 3-5-2-12-8-26-14l-9-2-27-6z" class="st262"/><path d="m212 332 7 4h-4l-3-3z" class="st220"/><path d="m403 258-6 6 2-5 1-1 1 1 3-4z" style="fill:#737349"/><path d="M416 222q3-3 1 0 0 3-3 4l-1 1v-1z" style="fill:#5d5237"/><path d="m406 252-1 2q-3 2-4 1l1-2v1z" style="fill:#9a9c6e"/><path d="m411 230 1-2z" style="fill:#937f65"/><path d="m403 190 2-1q-2 5-1 8v2l1 8v1h1v1l3-3h1q0 4-4 5v-1 4l-2-7-1-11h-1z" style="fill:#7b7d4e"/><path d="m406 212 2-2v7l-1 1q2 2 1 4v1l-3-10z" class="st217"/><path d="M409 214v4l-1 1-1-4 2-2z" style="fill:#52522d"/><path d="M411 215v4h2v4h-1v-1l-1-1z" style="fill:#575731"/><path d="m81 341 1 3q1 0 0 0v3l1 2q0 3-3 3l1 2-1 9v6l1 2v4l2 22c1 0 1 5-1 4v-6l-1-2v-2l-1-9v-13l-1-16v-2l1-8z" style="fill:#ede9e5"/><path d="M84 343q2 3-1 2l-1-1v-1z" class="st237"/><path d="M79 351v-5h1z" class="st313"/><path d="m81 341 1-2z" style="fill:#bbb6b1"/><path d="m80 346 1-3z" class="st369"/><path d="m449 171-3 4-4 7v-4l2-2 5-8z" style="fill:#63663b"/><path d="m449 173-1 3h2l-2 3c-1 2-5 3-3 0l1-4 3-4z" style="fill:#6c7042"/><path d="M454 164q0 5-3 8c-2 0 1-7 3-8" style="fill:#8e9161"/><path d="M449 173v2l2-2-2 3-3 3z" style="fill:#767a4b"/><path d="m393 234 1 4v-3l1 1 1-2v9l-1 1-2-3-1-2q-1-4 1-5" style="fill:#4d502c"/><path d="M391 226v1l1 10h-1q-1 1-1-1-2 0-1-1v-3l1-8h1z" style="fill:#626539"/><path d="m393 234-1 5q-2 0-1-2 2-4 0-8v-2z" style="fill:#55572e"/><path d="m427 202-2 2v-9 4c5-2 1-8 4-12q1 8-2 15" style="fill:#50542b"/><path d="m433 179-1 8h-1v-8l1-1q0-3 2-5z" class="st94"/><path d="m434 181-1 3v1l-1 5-1-3 2-8 1-3z" class="st155"/><path d="m433 194 1 1-4 6-1 1h-1z" style="fill:#b29e89"/><path d="m429 202-2 3-1 1q-1-3 1-3l1-1z" style="fill:#9e886e"/><path d="m427 203-1 3-1-1v-1z" style="fill:#ccc1ac"/><path d="M400 244q1-1 1 1l-1 2q-1 2-1-1c-3-3-1-8 1-2" style="fill:#81684e"/><path d="m396 245 1 3q2 1 2-2l1 1-2 4h-1l-1-5z" style="fill:#8b735b"/><path d="M409 225q1-2 0 0v2l-1 1z" style="fill:#866d4a"/><path d="m401 245-1-1 2-2v1z" class="st271"/><path d="M410 224v2h-1v-2z" class="st217"/><path d="M425 203v-6h1z" style="fill:#666d41"/><path d="M100 471c-3-5-9-22-9-27v-9q-6-23-7-46l1-2a801 801 0 0 0 16 83z" class="st180"/><path d="m85 387 3 32 4 17v5l-1-1v4l-1-1-1-4-1-5-1-3-1-4v-3l-4-19v-4l1-5v-9z" class="st313"/><path d="M85 355v4a397 397 0 0 0 17 109l-1 1 2 3q2 0 2 2l5 4h-1l10 3q0-1 0 0h3v1h-5q-8 1-14-6l-3-5q1-6-2-14l-8-33-5-37v-1q-2-13-2-28-1-3 1-6 2 1 1 3" style="fill:#ddd6d1"/><path d="m117 482-2 1q-7-1-12-6v-1q6 5 14 6" style="fill:#272423"/><path d="M122 483h-7l2-1 9-1 1 1 6 1v1l-8-1" style="fill:#21201e"/><path d="M457 185v4l-1-1h-1v-2h-1z" style="fill:#7a6a4e"/><path d="m437 176-1 9h-2v3l-1-3 3-7v-1z" class="st155"/><path d="m433 185 1-3v1l2-4-3 7" class="st223"/><path d="m432 272 1 3q-6 1-8-4z" style="fill:#8b8e5d"/><path d="m421 223-6 3 3-4q0-2 2-1z" style="fill:#63653d"/><path d="M396 242v-3z" class="st505"/><path d="M419 262v1l-6 4h-1v-1l1-1h1z" style="fill:#977f66"/><path d="M412 266v-5h1l2 1z" style="fill:#625f3d"/><path d="m421 258-1 2h2v1l-3 1h-1l1-3z" class="st477"/><path d="M380 229q3 5 8 5v-1q2 0 1 2l1 1q2 3-3 0h-2l-5-5z" style="fill:#7f8053"/><path d="M378 298v-3z" style="fill:#4a5222"/><path d="m423 212-3 6-1 3-2 1v-1l-1 1 1-3z" style="fill:#6e5c43"/><path d="m417 266-2 2v-1z" style="fill:#d8d4cc"/><path d="M442 208q-1-2 2-2v1z" class="st314"/><path d="m303 391 8 6q2 4-3 1-1 1-1-1l-2-1q-6-4-2-5" style="fill:#ece7e3"/><path d="m311 397 5 7v1q-5 1-5-4-2-1-2-3l2 1z" class="st428"/><path d="m298 389 2 1c1 3-4 0-6-1q-1 1-3-1l-3-1q-3 0-1-1z" style="fill:#e7e4df"/><path d="m300 390 3 1v1l-1 1 3 3-6-3-5-3q4 2 6 0" class="st78"/><path d="m240 363 8 8 2 1 3 2 6 3 4 2 2 1h-1q3 0 0 2-10-2-19-10-2 1-3-3c-3-2-15-17-14-21q0-2 2-1z" style="fill:#e8e2dc"/><path d="m229 346-2 2c0 2 8 13 10 15s4 3 4 5q-4-1-7-7-5-5-7-12-3-2-4-6l2 2z" class="st363"/><path d="M80 369v-16l1 3z" class="st313"/><path d="M80 375v1l-1-7h1z" class="st546"/><path d="M80 379q0 2 0 0v-4z" class="st313"/><path d="M80 382v1-4z" class="st420"/><path d="M81 385v-3z" class="st120"/><path d="M81 391v-4z" class="st313"/><path d="M81 387v1l-1-3h1z" style="fill:#353330"/><path d="M81 393v-2z" class="st0"/><path d="M82 396v-3z" class="st313"/><path d="m82 398-1-3h1z" style="fill:#302e2c"/><path d="M82 401v1-3z" class="st138"/><path d="m385 236 4 2q1 1 1-1l1 1 1 2 1 2q0 1 0 0-3 1-4-2t-3-2z" style="fill:#7b7a4f"/><path d="M386 237q4 1 4 5-4-2-5-5z" style="fill:#4b4c27"/><path d="m390 219-1 13-1-1v-5l1 1v-8l1-2z" style="fill:#7a7b4d"/><path d="M391 222v2q-2 5 0 11h-2l-1-2v-2h1l1-12z" style="fill:#6c6e41"/><path d="m441 188-1 1h-1l1-1z" style="fill:#a39a7e"/><path d="M256 381q2 3 5 2h1l2 1q-2 5 3 4 3 5 7 5 0 3 3 3 2 6 9 8 2 4 6 4 3-1 3 2 3 0 4 4l7 2q2 3 3 0l-1-15q0-2 2-1l1 1q1 4 5 4h-1l-1 2v1q-3 4-3 12l-4 1q-2 1-3-1l-2-2q-6 1-8-4l-15-6-5-6q-5 0-8-5l-5-4q-1-4-6-4l-7-5v-8z" class="st111"/><path d="M521 407q-8 2-17 0l-89 1-2-1h-62q-8 2-17 0h-11l-5 1v-1z" style="fill:#e6e6e3"/><path d="M319 417c0-5 3 0 5 2l1 4q0 7 4 14v7q-2 2-3-4-3-3-3-7l-2 1-2-7 1-1h-1l1-3z" style="fill:#a0958c"/><path d="M320 414q3 1 5 4l4 14v5h-1l-3-6c-2-5-1-4-1-9l-4-6-1 1-1-3q2-3 2 0" style="fill:#a79c93"/><path d="M319 426c1 1-4 0-4-2v-2c-4-3-1-10 1-13v-1z" class="st467"/><path d="M316 407v2q-3 4-3 10 0 3-5 3l-1-1-1-1 5-1c1-3-1-10 2-12z" class="st207"/><path d="M318 408q7 0 4 3l8 2c1-2 7-2 9 0h-8l-1 1-11-1-1-1z" style="fill:#9c9086"/><path d="M331 412h8v1l-9 1h-1v1l-7-1h-3l-1-3q6 2 13 1" style="fill:#897d72"/><path d="M320 426q0 2-1 1h-3l-6-3 2-1 3 1 3 2zl1-3z" class="st243"/><path d="m315 406 1 1h-3v-1z" style="fill:#676460"/><path d="M265 380h1l3 1h3l2 1 6 1 7 3 1 1q1 1 0 0-12 0-22-4l-2-1v-1zh-1zm147-158-2 3v-2z" style="fill:#e7e3dd"/><path d="M128 316h-4z" class="st364"/><path d="M403 198v6q-2-5 0-8v-1z" class="st466"/><path d="m409 206-2 4-1-2q0-3 3-4z" style="fill:#8c8b5a"/><path d="m448 179 2-3 2-2z" style="fill:#5e6239"/><path d="M136 317h-8z" class="st69"/><path d="M149 317h-8zm6 1-3-1z" class="st97"/><path d="m436 173-1 4-1-2q-1-1 2-3" style="fill:#91915d"/><path d="M445 179v1l3-1-3 3h-1v-2z" style="fill:#5d6137"/><path d="M414 258v1l-1-2 1-1z" class="st234"/><path d="m393 241-1 1-2-1-4-5h1z" style="fill:#65663d"/><path d="m395 244-1-3v-1q2 1 2 3" style="fill:#b4af8d"/><path d="M424 259h-1l1-2z" class="st477"/><path d="M122 483h-3z" class="st378"/><path d="m141 320 16 1h1l3 1h1l10 2h-3l-3-1h-1l-39-1-17 3-2-1q-4 4-9 3l-4 4 2 5q-3 19 9 33h1l5 4 4 2q-2 1-5-1-4 0-8-3l1-2-7-7v-3l-3-9-1-5-1-1c1-2 0-6-1-3l-6 2-1-1v-1l1-3c6-15 36-17 50-18z" style="fill:#d1c8bf"/><path d="m166 322 3-1 15 3-1 1z" class="st68"/><path d="M144 320h8l3 1h2zl-3-1z" class="st262"/><path d="m193 326 5 2h-5z" class="st220"/><path d="M144 320h-10zm46 5-3 1h-1q2-2 4-1" class="st68"/><path d="M84 338v3h-1z" class="st237"/><path d="M193 326v2h-1zm-38-5-3-1z" class="st68"/><path d="m161 322-3-1z" class="st262"/><path d="m224 344 4 6h-1l-11-11-2-1z" class="st218"/><path d="M172 324q9 0 17 4h-3l-1-1h-4l-6-1-5-2z" class="st229"/><path d="m189 328 9 2v1h-1q-2 1-4-1zq-2 2-2-1z" class="st447"/><path d="m84 386-1 1v9h-1l-2-23 1-2 1-10h1z" class="st313"/><path d="M84 386q1 0 0 0-2 5 0 10h-2l1-3-2-19 2 1-1 2 1 7z" class="st120"/><path d="m84 352-1 17 2 17h-1l-1-7v-19q0-3-2-1v4h-1v-11l3-1z" class="st180"/><path d="M83 360q-2 3-1 6v4h-1l-1-2 1-6v-4q1-3 2 1" class="st120"/><path d="M86 354q2 3-1 1v-1l-1-3-1-1v-2l-1-2 1-1h1z" style="fill:#292623"/><path d="m83 351-1 1-1-1v-1l1 1zl1-2zm-3 18v-6h1z" class="st313"/><path d="M82 344h1v2l-1 1z" style="fill:#383735"/><path d="M84 343q6 1 4 6 2 4-1 4l-1 1-3-8v-1z" class="st494"/><path d="M168 474q0-1 0 0l1 3v1l-1 3h-8 7q3-2 5 1c2-2 6-1 3 1h-34l-14-1h-10 5q3-1 0-1h-1v-1q-6-2-2-5h8q2 3 5 2h17q6 3 12 1 6 1 5-5 2-2 2 1" style="fill:#a5998f"/><path d="m85 356 2 2v2h-2v9l2 16v2l2 15 1 2-6-40 1-9zm17 112 6 7v1l-3-2-2-2zl-5-24h1l1 1 5 21z" style="fill:#c1b8af"/><path d="M104 469q2 0 4 4l2 3h2l9 4v1h-2l-10-3-1-2-6-8q1-1 2 1" class="st274"/><path d="m108 476 11 5-11-2c2-3-3-3-3-5z" class="st132"/><path d="M97 445v-5q3 2 1 5" class="st111"/><path d="m103 472-2-3zm19 9h3zm-1 0h-3z" class="st132"/><path d="M153 483h7v1h-25l-2-1z" class="st247"/><path d="m133 483 11 1h-18z" style="fill:#fdfdfd"/><path d="M141 483h-11l-3-1h12z" class="st247"/><path d="M159 483q2 0 0 0h-6z" class="st286"/><path d="M294 390q6 2 11 6l2 1 1 1 2 3h-1l-1-2q-2 0-1 5l-3 2q-8 0-10-5l-4-5h-6q-2-4 3-6l-4-2-1 1-10-3-2-1q12 0 24 5" class="st206"/><path d="m307 397-2-2z" class="st428"/><path d="m264 382 24 5 3 1 3 1v1l-24-6q-7 0-14-4-5-2-9-6-2 1-2-2 9 8 19 10" class="st363"/><path d="M288 387h3v1z" class="st78"/><path d="m242 369 3 3 2 2v1q-4 1-6-5l-1 1-5-7v-2z" class="st324"/><path d="m228 350 7 12v1h-1q-3-2-4-7l-2-3q-2 0-1-2v-1z" class="st111"/><path d="M318 513h-4l-3-9q-3-6-3-13-2-3-1-6v-2l2-1 7-5h2z" style="fill:#8c8077"/><path d="m521 512-1 1H385l1-1h9l1 1q0-2 0 0l1-1h9l1 1q0-3 1 0h10q0-3 1 0h22q0-2 0 0h11q0-2 0 0h12q0-2 0 0h23q0-2 0 0h11q0-2 0 0l1-1z" style="fill:#f7f4f2"/><path d="m521 512 1-89z" style="fill:#f2ebe3"/><path d="M318 513c0-2 4-2 4-1l6 1q1-3 1 0l1-1h8l1 1h1q0-2 0 0h-27z" style="fill:#cfc4be"/><path d="M352 513h10q0-2 0 0 1-3 1 0h2-24q1-3 1-1h7q2-1 3 1" style="fill:#e3dad5"/><path d="M374 513q0-2 0 0l1-1h9l1 1q0-2 0 0h-20l6-1q2-2 3 1" style="fill:#f6f2f0"/><path d="m307 512 4-11 3 12h-9v-7z" style="fill:#aea59d"/><path d="M521 414h-9q1 3-1 6v1l-1 20h-1v-27l1-1v1h-10l-1-1 1 1v97l-1 1-1-98q-5 2-10-1l34-1z" class="st93"/><path d="M521 413v-5h1z" style="fill:#eae4df"/><path d="M521 423v-5h1z" style="fill:#d2b891"/><path d="M521 418v-4h1z" style="fill:#f2ede4"/><path d="m247 375 1 1v7l6 3q-1 1 2 2h2l2 1 2 4 5 3 2 3 6 2q2 4 6 6l1 1 4 3h2l1 1q3 0 5 2l3 3c4 1 4-2 7 2q1 1-1 1l-10-2-14-4q1-3-2-6-4 0-5-3-4 0-5-3l-8-5q-3-5-9-7-6 0-8-4l-2-1q-3-7 1-15 2 4 6 5" class="st12"/><path d="M270 385h2l4 5q2-1 2 2 1-1 2 1c-1 3 4 7 7 7l1 2 6 4q6 2 7 6h2q3 2 5-4l-1-1v-8h1l2 1q-2 0-1 2l1 14q0 3-4 2l-4-3-3-1-2-2q-2 1-4-2l1-1h-2l-6-3-1-1-5-3-4-5-2-1-1-2h-2q-2-3-5-4l1-1q-3 1-5-1 2-3 0-5z" class="st324"/><path d="M270 384h-3l-5-2h-1q-3 1-5-2l-8-5-1-1v-1q10 8 23 10" class="st201"/><path d="m293 418 10 2 4 1 1 1q3-2 3 1l-1 1h-1l-1-1h-2l-13-4z" style="fill:#292422"/><path d="m261 383-2 1q-3-1-3-3z" class="st324"/><path d="M503 407q1 1-1 2h-10l1 2h-66v-1q2-1-1-2v-1z" class="st538"/><path d="M520 407v5l-101 1-6-1h5q0-1 0 0 0-3 2-1h7l28 1 37-1-1-3h11l1-1z" class="st166"/><path d="M356 407h1q5 5 8 0h35q1 3-4 4l-42 1c-7 1-7-4 0-5z" style="fill:#beb5ac"/><path d="m326 407 11 1q3 5 8 0l5-1h4q-1 2-3 2v3l11-1h34l1-1c1 0 19-1 20 1l1 1h-10l-64 1-5-1-9-1q-7 1-6-4z" class="st309"/><path d="m412 407 3 2q5-1 3 3-3-2-6-1h-16l4-4z" style="fill:#bcb2aa"/><path d="M426 407q3 1 4 4h-4q-5-2-6 0l-2 1q0-3-4-2c-4 1-1-2-2-3z" class="st309"/><path d="M350 407q-2 2-5 2l-3 3-4-1-3-3q-4-2-6 1-1-2-3-2z" style="fill:#bfb5ad"/><path d="M369 407h-3l-1 2q-6 4-9-2z" style="fill:#c4bbb4"/><path d="m324 407 1 4 5 1-8-1v-3h-4c-1-1 5-1 6-1" style="fill:#a99e95"/><path d="M322 434v-4q3 3 2 7l3 3c1 1-1 4 2 4v13q-4 0-3-5l-2-6v7l-2 1v-13l-1-3z" class="st232"/><path d="M330 437v17l-1-3v-14z" style="fill:#857970"/><path d="M322 434v8h-1v-3q-3-2 0-5l-1-2v-3q-3-1-1-2l1-1 1 2q-1 3 1 6" style="fill:#2a2825"/><path d="M322 414q5 0 5 6l2 7v6l-1-2-5-14-3-3z" class="st429"/><path d="M330 430v7h-1v-13h1z" style="fill:#8e8279"/><path d="M316 409q-3 6-1 12h1l-1 3-4-1-3-1 4-2q0-7 4-11" style="fill:#aaa096"/><path d="M408 412h5zh-34l-1 1h-12q-1 2-4 0h-28l9-1-8-1h77" style="fill:#9b8f84"/><path d="m329 414-1 13-4-11-3-2z" style="fill:#b3a89e"/><path d="M330 414v10l-1 3z" class="st506"/><path d="M311 424q3 0 5 3l-5 1q-3-2-2-4z" class="st103"/><path d="m319 427 1 2h-43 7l24-1h5l4-1z" style="fill:#aea49b"/><path d="M316 427h1l-4 1h-5q2-3 3 0z" class="st336"/><path d="m112 530-3-1z" class="st378"/><path d="M127 322q20-1 38 1h1l3 1h1l11 3-6 1q-3 1-6-2h-7l-15 3q-3-3-7 0-6-2-10 0-7-1-12 2-4 0-7 4-4 1-4 4-4 5-3 11-2 4 0 7l2 8 5 6h1l6 4 2 1h3l-1 1h-4l-3-1 2-1-6-1-5-5q-2-2-2-5-6-9-4-19 0-5 4-8 1-5 6-7 0-4 3-3 2-2 5-2l1-2 7-1z" class="st447"/><path d="M84 343q0-2 2-2l3-1v-2l3 2q-1 1 1 2l-1 2v3l2 1-1 1h1l1 6 2 5 7 9-1 1q1 1-1 1t-3-2q-2 0-3-3l-10-11v-1l2-2-1-3 1-1-1-3q-2 0-3-2" class="st237"/><path d="m126 322-5 1-2 3q-4-1-5 3h-1l-1-2q-2 2-1 4l-3 1-3 3v2l-2 1q-3 2-1 5l-1 1 1 1-1 1v11l2 5 1 2h-1c-5-4-7-23-2-29q-1-4 4-8-1-2 2-3z" class="st229"/><path d="M107 324q-2 2-1 4l-4 5v3l-1 1c-4 8-2 20 3 27l2 4 5 5-2-1-4-3q-8-9-9-22v-9q4-4 1-9l1-2z" style="fill:#c8beb5"/><path d="M98 327v2h1l-1 2 2 2q-1 4-3 5c2 4-2 8 0 12l3 10 5 9-7-9-4-11 1-11 1-2-4-5z" class="st494"/><path d="m165 323-38-1 11-1 18 1z" class="st229"/><path d="m102 371 8 3q1 1-1 1-3 0-7-3-2 1-3-2v-1z" style="fill:#262221"/><path d="m115 375 3 1-2 1q-3 1-7-1v-1l1-1z" style="fill:#2f2b29"/><path d="m169 324-3-1z" class="st229"/><path d="M227 350h-2q-3-6-8-9l-1-2v-1c3 2 10 8 11 11" class="st16"/><path d="m214 338-6-2-1-1h-4l-1-1-5-2v-1h1z" class="st470"/><path d="M185 336q0-3 4-2c1-2 6-2 7 1h3l1-1 6 2 1-1 7 3 2 1v1q-1 2-1-1l-6-1q0 5-5 3-5-5-12 0-2 4-4 1 0-4-5 0h-7v2c0 1-5 3-5 0q-5 3-2-2 0-2 3-2c0-3 5-4 4-1q0 1 0 0 0-3 4-1z" class="st3"/><path d="M181 327h4l1 1h-2q-5 4-10 2l-2 1-6-1-4-1-14 3-1-1h-11l-20 2-7 6-1 4-2 1-1 4v1l1 16q-3-3-2-7l-2-3v-4l1-1q0-7 3-12l1-2 3-2 5-4 6-1 8-1 5-1 7 1 4-2 3 2q8 0 15-3h6l4 2z" class="st297"/><path d="M188 328q0 3-1 1-3 0-1-1z" class="st470"/><path d="M185 327h-3z" class="st447"/><path d="m188 328 2 1 3 1 4 1 5 3v1l-10-3q-3 3-7 1l-3 1q-1 4-3 1l-2 1q-7 0-12 2l-4-2q-6 4-13 1-3 0-4 2h-8l-5 2q-5 4-12 1-5 2-6 6-4 2-3 9-3 6 2 13l2 1q2 0 3 2l1 1v1l-7-4-3-4v-1l-2-4 1-8q-2-5 2-9l3-6h3q3-4 6-4 3-2 3 2l1-1q6 1 11-3h3q2-1 3 1l6-1h13l3-2q9 3 19-1 2-2 4-1z" class="st408"/><path d="m193 330-3-1z" class="st470"/><path d="M83 360q0-2-2-1v-2l2-1z" class="st313"/><path d="M87 355v3l-2-2z" style="fill:#3e3937"/><path d="m166 463 2 11h-1q0 3-2 5l-10 1q-5-3-8-1l-11-1h-4c-2-1-3 1-5-2h-8l-1 1 3 3-11-4c-3-2 2-6 4-7l5-1 4 2 1 1q2-4 3-1 3-1 5 2 4 4 10 2h1q3 2 5 1l6 2q4-2 9-1 3 0 2-3v-5c-2 0-1-6 0-6z" class="st556"/><path d="M174 466v6q3 2 2 5 2 0 1 2 2-1 1 1l1 1 12 2h1v1l-14-1h-19 16l2-2q-4-3-4-8-1 0 0 0l-1-3q-2-5 0-8v-3l1 1z" style="fill:#23201e"/><path d="M171 478c-1-2 0-8 2-5q1 5 6 9l-4 1v-1h-3v-1z" class="st440"/><path d="M169 477q3 1 3 4v1h-10l-2-1h8v-5zq0 1 0 0" style="fill:#95887e"/><path d="m169 472-1 2-2-11h1z" class="st135"/><path d="m170 475 1 3 2 3h-1l-3-4-1-3 1-2z" style="fill:#231f1d"/><path d="m105 376 9 3 25 7q6 3 11 8l3 3 5 7-1-9 1-2q2 1 2 3l2 8q-1 11 1 22l-1 7v3q2 9 0 16-3 4-4-1l-3-2q0-6-5-7-4-3-5-9-3 0-1-4-5-9-14-7-2 0-2-2l-3-2c-2 2-7 1-7-2l-2-1-4-3q-1 3-4 0c-3 4-8 3-3-1 0-1 2-9 1-11l-5-3q-1-5-4-3l-1-1v-3l2-6v-6l-3-2c-4 1-4-4-3-7l-2 1c-5-6-3 6-2 8l-1 2q3 5 0 5l-2-20 4-2h1q7 8 15 12z" class="st297"/><path d="m87 385 1-2c0-1-3-4 0-5q-2-1-2-4-2-3 1-7 2 0 3 2l3-1c0 2-2 7 1 7l2-1 3 4-1 4h2l-4 8 1-1c2 1-1 3-1 3l4 1 2 2-1 2 4 2q3 0 2-1l2-1 1-3 2 1-1 2 2 1q0 2-2 1l-2 1-2-1v7l-1 6q-2 0-2 3l5-4 1 2 2-2 3 2h1v2h3v2l4 1c2-4 2-1 4 0q2 0 2 3l1 1q2-3 4-1 4 0 7 3l2 2q0 2 3 3v1l-2 1v1l3 1-1 1q2 2 2 5l2 3h2l3 2 1 5q3 1 3 4l2-2 1-8v-10q0-1 0 0l1 3 1 4v7q1 4-1 4 2 5 1 8h-1q-2 5-3 2-5-1-6-5h-1q-3 3-3-2-2 0-3-2l-1-2-2-5-3-5q-5-3-6-7-4 2-8 0l-4-2q-2-4-5-4-1 5-4 0h-6q-2-3-3 0c-5 4-3-3 0-5q-2-4-6-4l-2-4c-2-4-5 3-3 4q5 2 0 4 2 2-1 5 3 3 2 7v2q3 1 1 4l-1-4a301 301 0 0 1-8-49z" class="st124"/><path d="m96 366 3 3v1h-2l-7-7v-1q-2 1-2-1l-1-1v-3l4 4z" style="fill:#26211f"/><path d="m88 361 2 1q0 2-1 1l-3 3-1-1v-5z" class="st124"/><path d="M89 402q-3-7-2-15 2 3 1 6zm-2-42 1 1-3-1v-1z" class="st297"/><path d="m95 434 2-1q2-2 3 2l6 1q-1 4 3 5l1 2q6-1 5 3 4 2 1 4l1 3h2q0 3 4 3l2 1 1-1q6 5 11 1 4 1 5 5l5 1 4 3 9 4q4 6 2-3l1-6v-13l1 4v-5 4l1 5v8l-1-1 1 5v7q0 3-5 1l-4-1q-1 2-4 1l-3-1-6-3q-4 2-7-1-2-4-6-2l-4-1q-2-3-7-4c-2 5-6-1-7-4q-4 2-5 0l-1 1q2 3-2 3v5l-2-1-5-23-1-5-1-4z" class="st432"/><path d="m104 469-1-6h2l-1-3 2-1-3-1 2-2 3 2c-2 5 3 1 5 2l3 5h1c2-4 6 0 8 0l1 3c3-3 4 2 7-1l2 2 1-1v2q4 3 8 1l1 2 5 1 1 1h3q1-2 4 1 2-2 5 0c3-3 1-6 2-8v1l1 6c-1 4-6 1-9 2l-3 1-4-1-1-1-1 1-2-1q-1 1-3-1v1l-1-1h-7l-4-2-2-2q-3 1-3-2-1 3-4 2c-1-4-3 0-4-3l-4 2-4 4v2z" class="st200"/><path d="M167 483h14l-1 1z" style="fill:#111112"/><path d="M167 483h-7v-1z" class="st286"/><path d="M283 388q3 1-1 5 3 5 9 7l3 2q2 4 8 3 2 6 5 2l1 1v2l-2 3h-5l-1-2c-2-4-6-3-8-6l-1-1q-3 0-5-3-3 0-5-3l-2-1v-4l-3-1 1-2h-3l1-2-2 1 1-2-2-2z" class="st201"/><path d="m283 388 5 2q1 2-2 1-1 2-3 2l2 2 6 1 1 2 3 2 2 3c0 1 6 2 7 1l-1-1 3 1v-6l2 1q-2 0-1 1l1 8-3 3-4-5c-2 0-8 0-8-3q-2 0-2-2l-7-3-4-5 4-4z" class="st458"/><path d="m215 339 1 1q7 5 11 11l1 2 2 3q2 5 5 7l6 7-1 4v8l1 2c3 0 1 1 2 2l2 2 5 1 5 2 6 6 7 5 1 1 4 1q1 4 4 3l2 2 1 1 1 3h-2q-2 2-5-1h2c2-2-4-4-6-5q-5-4-11-6-1-5-6-6l-4-2q-8-3-13-9l-4-6q-2-3 0-6l-1-3q-5 0-2-4-4-2 0-5-2-4-1 0c1 2-6 0-6 0q-3-1-1-3-4 1-4-2-4 1-5-3l-5 1-4-4-8 3-2 1c0 4-6 6-5 1l-1-3c-1 1-2 4-3 1l-4 1-4-2q-4 4-10 2 0 3-2 1l-7-1-7 4q-1 3-4 0l-5-3q2-4 6-4h7q1-2 4-2 5-3 8 2 3-3 5-2 1-3 3-1 1-2 3-1 6-5 13-2 5-4 7 0h3l7-1 3-1q1-4 5-3" class="st166"/><path d="M230 356q-2 1-2-3z" class="st16"/><path d="m308 482-2 1h-10l-6-1 1-1z" style="fill:#2d2925"/><path d="M322 444v12q2 5 0 9l-2 9-1 1-2 2q-2 4-8 5h-1q1-3 5-3-1-2 3-2-1-3 2-3v-1l1-2v-6l2-8 1-15v-1z" style="fill:#26231f"/><path d="M319 508v5h-1l-1-36 2-2v2l1 30z" style="fill:#776e63"/><path d="M498 512v-98h11v27l1 67v1l2-19v12l-1 1 3-1h5v-81h1v91q-1-1 0 0z" style="fill:#ada198"/><path d="M487 414h11v99h-11z" class="st474"/><path d="M475 414v15l-1 4q-2-1 0 0v58l-1-1v-28l1-2-1 3q-5 0-2 9c0 4-5 4-6 1l1 1v9l-1 1q3-3 5 1c2 2-1 11-4 8l-1-3 1 1v19h-1q2-1 3 1h6l1 1v1h-11v-87l-1-4-1-8z" class="st454"/><path d="M476 451v3l1 20v37-13h1l3-5c0-2 2-7 4-4v15h1l-1-15v-3l1-3c0 4-3 8-5 3l-5-3v-9h3q-1-4 3-6-2-2-5 1v-15l4-2q-2-3 1-6 4-2 4 2v4l1 3v58h-11z" class="st275"/><path d="M440 459q0 5-3 5v5q-5 3-2 4l4-2c1 1 1 16-2 17q0 6-6 5v-1l1 1v19h-1l4-1h5l1 1v1h-11v-22l1-52 2-2q-1-6 3-8c0-1 4-7 4-5z" class="st41"/><path d="M452 511v2h-11v-1l1-44q0-3 4-2l4-11h2z" class="st489"/><path d="M453 452v16l-1 1v23h1v-23q0-2 1-1 1-3 4-4 0-3 3-2l1 4 1 2v45h-12z" class="st288"/><path d="M408 486q1-5 5-1l5 2v26h-10l-1-3z" class="st221"/><path d="M396 500v13h-11l1-6v-13c1-3 6-2 6 1h3v11-11h-1l1-15 1-1zm11-7v20h-11q0-2 1-1v-12q0-9 5-4l3 3 1-4 1-15z" class="st402"/><path d="m487 513-1-3v-58l1-38z" class="st36"/><path d="m419 455 1 4v23l-1 3v9h1v18h-1v1h-1v-26q-3 0 0-1v-5h-1l2-49z" class="st239"/><path d="M476 443v70h-1v-1l-1-8z" class="st36"/><path d="m464 512-1-3v-65l1-10z" style="fill:#958a81"/><path d="M498 512v-87 86" style="fill:#8f857c"/><path d="M430 446v67h-1q-2-1 0-5l-1-2z" style="fill:#958b81"/><path d="M453 452v58l-1 3v-64h1z" class="st427"/><path d="M408 493v20h-1v-20q0-3 1 0" style="fill:#93887f"/><path d="m441 512-1-23 1 1z" class="st517"/><path d="M429 508v5h-10v-1l3-1h4q1-4 3-3" class="st352"/><path d="M397 512v-13z" class="st525"/><path d="M305 506h-1zm0-2h-1v-2z" class="st496"/><path d="M330 470c4-1 4 5 3 8q4 1 4 6 2 4 3 1v-6q0-1 0 0v34h-10z" style="fill:#91847b"/><path d="M341 486h1q7 8 8 19h1l1 7q-1-1 0 0v1h-11v-5h3q3 4-2 4h7-1q0-3-4-5l-1-8-2-1z" style="fill:#978c83"/><path d="M330 454v59h-1v-1h-1l1-55v-6z" style="fill:#7c7168"/><path d="M319 508q3 0 5 3l5 1v1h-11z" style="fill:#94877d"/><path d="M341 512v-32h1z" style="fill:#786e64"/><path d="M364 484v1q2-2 2 1-1 7 6 9l1 3 1 14h-11v-1h6q3-3 2-6l-6-3v4l-1 1h-1v-25z" class="st91"/><path d="M352 495q2 1 1 4 5 3 6 9l2 2 1-1q0-1 0 0v4l-10-1z" style="fill:#a1958c"/><path d="M363 492v16q2 2 0 4v1h-1v-27l1-1z" style="fill:#8c8178"/><path d="M362 513h-10v-1z" class="st422"/><path d="M385 453v60h-11v-1l3-24q7-3 6 5l1 1v12-43z" class="st16"/><path d="M386 506v1l-1 6v-60q0-1 0 0z" style="fill:#958a80"/><path d="m374 512-1-20h1z" style="fill:#8d8279"/><path d="m515 414 1 1 4-1v90l-3-2q-3 2-6 1v-14l-1 20v-96z" class="st393"/><path d="M520 412h-32l-1 1-10-1v-1z" style="fill:#887c72"/><path d="M520 414v4zq-5 3-5-1z" style="fill:#b2a89f"/><path d="M270 412h2l2 1 5 1 14 4h-1q-6 1-10-2l-5-1-8-2q0-2 1-1" style="fill:#2a2523"/><path d="m292 418 16 5v1l-6 4h-23l-61-2 6-1h8q1-2 4-1l2-1h4q8 3 12-1 6 2 8-3 3-3 7 0 6-4 13-3z" class="st103"/><path d="m309 424 2 4h-8l1 1h-20l-5-1 9-1q9 2 15-1l1-1 4-2z" class="st402"/><path d="M520 412h-35l-8 1-35 2-1-1h-34l-32-1h2l36-1z" style="fill:#91857a"/><path d="M426 411h-6c-1-3 5-2 6 0" class="st538"/><path d="M411 412h-3z" class="st166"/><path d="M329 457v15q0 5-4 0l-2-5q-2 1-2-2l1-9 1-2 1-13 2 7 1 4v2z" style="fill:#92857c"/><path d="m323 454-1 2v-12zm-1-13v-3z" class="st394"/><path d="M330 451q3-1 3 3l6 16 1 10v5q-4 0-3-5l-1-3-2-7-3-6-1-6z" class="st232"/><path d="m330 440 2 8q5 8 7 17l1 5v10l-1-10h-1l-4-11-2-5q0-3-2-3z" class="st344"/><path d="m331 438 8 20h1v12q-2-2-1-4l-1-1c-2-7-1-9-6-15-3-4-1-7-2-10v-4q3-1 1 2" style="fill:#a1968c"/><path d="M319 430h1v6l-5-2q0-3-4-2c1 5-6 3-7 0h-7l2 6q1 4-4 4 3 4-1 4-1 2-4 1 3 2-1 5 0 2-4 2-3 5-6 1-3 1-5-1h-1l3 4c2 1-3 6-3 6-1 0-9 0-9-2l-3-2h-1q-2-3-2 0l-8 2q6-1 2 2-3 1-2-2v1q-4-1-6 1 0 3-3 2-5 3-9-1h-5q-1 3-4 1l-13-1q-3 4-6-1l-4-1q-3 3-3-2-3-3-5-1l-4-1q-4-3-4 2l-3 10 1 2-1 2c0 2-5 4-4 2l1-2v-16l2-8q-3 0-2-5-2-8 5-8l1-3c1-1 14-3 16-2v-1l52-1v-1h49l1-1z" class="st174"/><path d="M250 462c1-1 6-3 7-2l-1-2 4-1v2h2q1 3 3 2v1l7 1 3-3q2-2-2-1l1-2q-3-3-6-2-1-2 1-2t3 1l2-1 2 2 4-1 1 2q4-1 3-3h4v-2l3-2-2-1c-1-3 3-1 3-1l1-2h2c1-2-2-2-1-3h3c3-4 0-4 0-6l-1-2q0-2-2-3h11v2l2 1 4-1-1-2q3-1 6 1c-1 4 2 1 4 4v-2h1v5l1 10v1l-1 3-1-1q-2-5-2 0 3 3-1 6l-2 4q1 2-2 4l-7-2q-3 2-6 1l-3-1-7 1q-3 4-7 3 0 3-4 1-7 3-13-1-6 3-12 0l-7 3q-1 2-4 0-9-1-16 1l-2-1h-8q-6 3-10-1-6 3-9 0h-7c1 3-5 3-7 2l-1 2q0 5-5 4 1 1-1 1l-1-2c-1-3 3-3 1 0l2 1q2-2 2-5l-1-3 1-2c1-2 2-10 4-11l4 2 1-1 2 1 3-1 3 3v3l2-2 5 2 1 1c3 2 2-1 4-1h6l5 1q3-1 4 1 1-3 3-2v2c3-5 6 1 10 0l4-1h1c-1-4 5-3 8-3zl2 1v-2z" class="st146"/><path d="M320 429v1h-1l-5-1z" class="st243"/><path d="m322 449-1-5v-2h1z" class="st394"/><path d="M321 442v2-5z" class="st544"/><path d="M321 434v-2z" class="st243"/><path d="M330 424q2 1 2 5l3 4q1 5 4 7l1 6v6l-2-1-7-16-1-5z" class="st474"/><path d="m330 430 1 3 1 2 2 6 6 11v3q-1 6-2-1l-7-16-1-2z" class="st190"/><path d="M351 414v10l-1 1v16h-1l-1-7q-6 0-8-5l1-15z" class="st117"/><path d="m362 414-1 12v17h-1l-1-11q-3 1-6-1l-1-7 1 13-1 1-1-11v-10l1-2 5-2z" style="fill:#c8bfb6"/><path d="m366 414 4-1q5-1 3 5 0 3-3 2c2 4-3 10-6 5l1 1v12l-1 1v-1l-1-15v-9z" style="fill:#c9bfb6"/><path d="M342 414v14q2 4 5 5h3l1 8v9h-1l-1-7h-2l-3-6-3-1v-22z" style="fill:#c0b7ae"/><path d="M340 414v15l-2-1v-5q-3-1-4-4l-3-4v-1z" class="st117"/><path d="M375 413h3v1l-4 2v11l-2 42 1-1v-55l-7 1z" class="st556"/><path d="M352 414v14l1 10-1 3v7l-1-23z" class="st158"/><path d="M341 414v22h1l-1 8q2 2 0 3l-1-12v-21z" class="st90"/><path d="M363 423v17l-1-14v-12h1z" style="fill:#a59a8f"/><path d="m358 414-2 2h-3v4l-1-2v-4z" style="fill:#cdc5bd"/><path d="m342 413 4-1 4 1z" style="fill:#8c7f73"/><path d="M331 415v8l2 1 5 8 2-3v-14 31l-1-5-2-1-3-6-3-6-1-4v-10h1z" class="st489"/><path d="M305 428h9v1h-9z" class="st402"/><path d="m378 313 5-1h2q-2-2 0-3s0 3 0 3h8q0 1 0 0-3 3-4 0-2 3-2 0 0 2-2 1m-15 2v-3h2l2 4" style="fill:#ae8a51"/><path d="m385 313 2-1-2 4" style="fill:#9d7a44"/><path d="m382 314 3-1" class="st123"/><path d="m108 366 3 5-2-1-1-1-2-4v-1z" class="st327"/><path d="M87 355v-2c1 3 4 2 4 5 1 2-1 2 2 4l1 2q2 0 2 2-5-3-9-9z" style="fill:#cdc5bc"/><path d="m99 370 3 2v1l6 2q1 2-1 1h-2q-5-1-10-6l-1-2-5-5 1-1z" style="fill:#c7beb5"/><path d="m102 372 7 3 7 2h1l-2 1 1 1c-1 0-8-2-8-4l-6-2z" style="fill:#d3cbc3"/><path d="M118 376h4l10 2 2 1q2 1 0 1-4 1-6-2h-8l-3-1h-1z" class="st135"/><path d="m119 374-1-5c0-1 5-4 6-3l4-1q3-3 6-2 5-3 10 0 3-2 5 0 3-3 5 3 2-2 4-1l6-3q3 1 4-1h7q3 3 6-1l4 1h3l2 1q3-3 8 1 4-4 9 1 4-2 6 3l9 2 3 3 3 7q3-1 3 2 5 1 5 4l11 7 3 3q6 0 8 5l7 4q2 3 6 4 5 1 5 4l-2 1-2-1 2-1q-7 0-13-6-4 0-7-3-1-3-4-2v-1q-5-1-5-5-4 0-7-4l-8-6q-5-2-8-6-3-1-2-5-6 2-10-3l-4-1q-4-4-9-2v-1c-1 3-5 1-4-2q-3 4-8 1l-1 1q-3 2-5 0-2 2-5 0h-5q-4 3-9 2l-3 1-7-1q-3-2-7 0l-1-1q-3-5-7 0-3 5-4 0l-6 3q-3 1 0 4v1h-1l-1 1-2-1h-1q-1 1-1-1" class="st199"/><path d="m124 375 10 1q1 3-2 2l-10-2h1zm-4 0v-1l2 1z" class="st146"/><path d="m119 374 1 1zv-1z" class="st154"/><path d="M112 370h-1q-3-4-3-10l2-5-1-2q0-4 3-6c-2-2 6-7 7-6l1 1h6l4-1v-3l1 2 5-2 4 1 3-1 1-2h4l3 1h7l3-2 3 2 5-2h7l3-2q0 2 2 2v-2q5 1 3-2l4-1v2l-2-1c-2 2 6 3 4 0 5-1 8 3 12 3l5 1c-2 3-2 0-2 0h-5l-2 1v-1l-3 1v-2h-5l-1 1h-2l-2 1q-5 4-11 1-1 3-4 2-4 3-9 0-3 4-8 3l-7 2-4-1h-1v-1q-1 2-4 2-3 4-4 2-4 2-6 0-3 3-5 0-5 0-6 4-5 1-5 6v11z" class="st288"/><path d="M215 339q-4 0-4 4h-2l-1 1h-5l-1 1h-1l-1 1-1-1h-2l-1-2-7 3q-2-3-5-2l-5 1-2 2q-2-1-2 1l-3-1c2 3-2 1-3 2l-3 2h-1q0-3-4-3l-5 1-1 2-5-1-5 1-4 3q-2 3-8 0-2 2-5 1l-3 1h-3q-3 4-7 2 1 3-2 5l2 8h-1l-2-1-1-3-1-7 2-8q4 0 7-4h2l7-1q5 3 10-1h2q2 3 5 1h7l4-1q2-3 4-2l9-2v3c2-4 2 0 4 0q0-2 2-1v-3h8l4-2c3 0 1 3 3 3 1-3 7-5 10-5q1 2 4 1v2l3 1 1-5z" class="st200"/><path d="M186 328q-9 5-19 4l-4-1-3 2-2-1-2 1-4-1-9 1c-2 0-1 3-4-1l-1 2q-5-3-5 2l-8-1-1 2q-3 0-2-3l-1 1h-3c-1 0-3 6-6 3l-2 5h-1q0 3-2 3l-1 4v4l1 2c-3 2 0 7 0 9l-2-2v-1l-1-2v-13q0-4 3-5l2-5q5-2 6-5h16q6-3 10-2 2-2 3 1h2l18-2h16l3-2z" class="st274"/><path d="M147 331q1 2-2 1-2-2-3 0l-1-1c-4-1-6 3-8 3l-12-1h-4l-2 3-5 3-1 5-2 1q0 2-2 3-1-5 3-5l1-5 2-1 5-6q1 2 4 1l23-2 3-1z" class="st327"/><path d="m184 328-1 1v1l-2 1h-12l-5-1q-1 2-3 1l-13 2-3-1 2-1h5l10-3 2 1h2l4 1 1-1 2 1q1-2 4 0 4 0 7-2" class="st470"/><path d="m105 349 2 5-1 9q-2-2-2-8z" class="st327"/><path d="m166 463-1-2v-9q0-1 0 0h1l1 11z" style="fill:#1b1b19"/><path d="M166 462v-2z" style="fill:#302d2a"/><path d="m252 430 2 1h12-9l-3 2-3-2-8 1h-36l-6 1-1 2-3-1-13 2v3c-2 1-5-1-5 3v4q-1 4 2 5-3 12-2 24l-2 2-1-1v1l-2-5 2-5v-29c0-2 0-7 3-7z" class="st191"/><path d="M248 476q4-1 4 1l-1 1h-26l-10 1-3-1-28 3v1l-5-1-1-1 1-1h4q5-4 11-3l2-1q15-1 30 1 7-2 14 0 5-2 8 0" style="fill:#968a80"/><path d="M238 430h8l1 1-53 1h-15q-4 3-3 11l1 24-3 5v-8l1-4v-23l1-6z" class="st550"/><path d="m170 440 1 10v6l1 6v8l1 3h-1v2l-1 1v2l-1-3v-2l-1-13-1-38 1 1z" class="st158"/><path d="M174 430h39v1h-38q-3 12-1 24l-1 1v4q3 1 1 4v2l-1-4-1-3v-5l-1-6v-2l-1-10v-9z" class="st218"/><path d="m184 481 1 1-6-2z" class="st295"/><path d="M172 454v8l-1-6v-8z" class="st247"/><path d="M174 466v4l-1-8z" class="st30"/><path d="m179 479-1 1-1-1zq3 0 1 1" class="st460"/><path d="m173 473-1-3z" class="st440"/><path d="m165 427 2 4 1 10q-1 16 3 31l-1 1v2l-1-3-3-9-1-12z" style="fill:#afa59b"/><path d="M141 386q9 4 15 12c-2-3-2-8 1-5l1 1v4l1 5v4l-6-7q0-3-3-2l1-2h-2v-2c-1 0-4-5-6-5l-4-3z" class="st458"/><path d="m164 403-1 5v6l1 13h-1l-1 6-1-23-1-8v-6c2 0 4 5 4 7" class="st408"/><path d="M143 381h1l5 3h2l8 7v1l1 1 1 1 1 1c2 3 6 9 4 12v1q-3-2-2-5l-4-7-2-3h-1l-7-6q-3 0-6-4-2 2-2-1h-2q-2 1-4-2h-2v-1q6-1 9 2" style="fill:#241f1d"/><path d="m107 376 7 3q8 0 14 3l11 3h1v1q2 0 0 0h-2c-11-4-23-4-34-10z" style="fill:#c4bab2"/><path d="m102 377-1 3q-3-1 1-3" class="st124"/><path d="M93 427q2-4 4 0h1q4 6 10 4 1-3 4 1 2-3 5 2h3q1-4 3 0c3-2 12-1 9 3q2 3-1 5l2 1q3-1 3 3c4-3 9 4 5 7q2-1 2 1 1 4 4 4l2 1q3-4 5 0l3 6h4l2-4 1 1-1 5c0 1 2 7-1 7l-3-3-4-2q-1-2-3-1l-5-3v-1l-2 1-3-2-1-2-3-3-6 2-5-1v-2l-2 1-3-1c-1-1-3 1-4-3l1-1-2 1q-2-2-2-5 3 0-1-2v-3h-5q0-3-3-3 0-2-2-2l1-3c-2 1-7 1-6-3l-1 1-1 1-2-1z" class="st16"/><path d="m93 427 1-4-1-2 2-1q-3 0-3-4l3-4c2-2 4 4 4 5l3 1 5 4q-4 2-4 6 2-1 2-3h2q0-2 1-1v2h6q3 5 3 1 3-1 6 2l1 2h1l5 1q3 2 4 0c1-2 2 3 2 3l6 4 2 4 1 2v2l2 3v1h2l-1 2 3 1v2l2-1h2l1 3c1 3 6 0 5 4l2-3v2l-2 6q-2-2-5 0l-1-4-1-1q0-5-3-3l-1 2q-3-2-7-2 0-4-1-3v-2l-2 1-1-3s4-1 2-4l-3-2-2 1-2-3-4-2 2-2v-4l-3-2-3-1-2 2-3-2v3h-6l-1-2h3l-4-2v1q-3 0-3-3l-1 3q-6 1-9-3-1-2-4-2l-1-3z" class="st111"/><path d="m164 438 1 5v8h-1v-20q-1-1 0 0z" class="st194"/><path d="M163 436v-4l1-6z" class="st297"/><path d="M166 408v2l-1 2q-1 4 2 7l-1 8h-1l-1 11v-8q-1-2 0 0l-1 1v5-9l1-1c-1-5-3-14-2-18l1-4 1-1z" style="fill:#aea59c"/><path d="m164 440-1-4v-5h1z" class="st283"/><path d="M121 419h2v1h-2z" class="st297"/><path d="M95 436v-2z" class="st111"/><path d="m165 454-1-3h1z" class="st496"/><path d="M165 458v-2z" class="st194"/><path d="M200 483h9-22z" class="st473"/><path d="M186 482h10q1-3 1 0l3 1zl-1-1z" style="fill:#978d82"/><path d="M200 483h-8v-1z" style="fill:#0b0907"/><path d="M184 352q0-2 3-2l1 3 1 3q3-1 2-4h3l3-3 5-1 5 4 1-2q1 2 3 1l2 3 4-1q1 5 5 3 0-3 2-5l1 6-2 1-2-1-1 2c3-1 4 2 6 1l-1-3 2-1 3 5h-2l-2 2 2 1q3-5 5 0-4 0-5 3l1 1 1-1 1 1 1 4-1 2c0 4 1 3 2 5l4 6 7 6q4 0 6 2h1l5 3 3 5 3 1 6 3h1l1 2q6 1 7 5h-2q-2-3-4-3-5 0-8-4v-1c-1-2-6-2-7-3l-2-3-6-3-4-4q-1 1-3-1l-1-1-6-4v-2l-3-1-2-1-2-2q-3-3-1-6v-2c-1 0-5-2-4-4q-5 0-4-3h-4q-3-2-5-6l-3-2-4 2q0 3-4 2-1 3-3-1l-4-1c-1 6-7 2-10-1l-3 2q-2 3-6 1-2 3-4 0-2 2-2-1l-5 2h-2c0 4-5 3-7 0l-4 1-15-2q-1 3-5 2-2 4-7 2l-3 2q-2-2-2 1 2 4 0 4c-3 0-5-8-3-9q3 1 4-3l2 1 2-2 9-2q3-3 4 1h1q4-3 9-1 3 4 6 0h3l7-1q2-2 3-1l2-1 9 2q4-3 9-3" style="fill:#a99f95"/><path d="M164 354q-2 2-5 2v1l-2-1-3 2-2-1-2 2h-1c-1 1-1-2-2 0h-1q-2-3-7-3l-1 2q-3 1-5-2l-1 1-10 3-3 1v-2l-3 4h-2q0 5 3 8 3 2 0 2-2 0-3-2c1-2-2-5-1-7l1-5 1-2q2 2 5 0l1-2h2l1 1q1-2 5-2l1 1 1-2c1-1 0 2 1 1l1-2q4 4 8 2l6 1 1 3h1v-2l4-3 4-1h1q4 0 6 2m2-1h5l3-2 1-1h4l2 2h3q-2 2-4 1l-5 3-3-1h-4z" class="st154"/><path d="M181 348q-2 0-1-2z" class="st200"/><path d="m313 479-5 3H202l-5-1c0-3 17-3 20-2l22-1q13-2 25 1 3-2 4-1h4l1-1 34 2c1-1 6-3 6 0" class="st372"/><path d="M269 483h28-17zh-3l-58-1h60" style="fill:#171615"/><path d="M297 483h-16v-1z" class="st473"/><path d="M290 482h-13v-1z" class="st372"/><path d="M291 482h-13 14" class="st525"/><path d="M322 465v2q-1-2 1-2c2 0 3 7 5 8l1-1v40h-6v-1l-4-3c0-10-2-24 0-33z" style="fill:#8f8279"/><path d="M321 457q0 7-3 14-3-2-6 4l-11 2-3-2h-12q-3 1-7-1-6 2-13 1h-18l-5-1q0-2 3-2 3 1 6-1 16 1 32-1l6 1 6-2q5-2 9-1 1 5 7-1h1c3 3 4-5 4-7q1-4 4-6z" class="st350"/><path d="m252 477 2-1h38q4-2 8 1c3 1 11-1 12-2 1-2 6-8 6-2v1l-2 1v2l-3 2-3-1-3 2h-4l-4 1-4-3-8 1-13-1-2 1q-1-2-3 1l-2-2-3 2-5-1h-28l-13 1q-1 1-1-1l8-1h14z" style="fill:#91857b"/><path d="M266 475c6 2 13-5 18 0h8l7-1 2 2 5-1h5l4-4q3-2 3 0v2q-2-3-4 0 0 3-3 4l-9 2-6-3-3 1-8-1c-9-1-23 1-33 1l-4-1v-1z" class="st232"/><path d="m318 474-1 1-2 2q-1-4 2-4z" class="st372"/><path d="M321 457v-4l1-3z" class="st394"/><path d="M510 509v3h-1v-71l1-19v-2z" class="st498"/><path d="M520 512h-8 2v-3h2l2 1 2-4zm-7-3h-2v-3q3 1 2 3" class="st393"/><path d="M484 414v4q2-3 2 1v29l-1-2q-6 2-3 6-2 3-5 2v15q0-2 2-2 3-1 4 3h-2c0 2-3 2-1 4l-3 1v8q2-1 3 1 2 0 3 4l2-3 1-2v21h-1v-15q-3 0-3 5c0 5-3 3-3 5l-2-1v13l-1-60v-20l-1-9v2q-2-5 0-11z" style="fill:#b1a69d"/><path d="M475 435v77h-9l1-1-2-1v-20l2 1 1 2 2-6q-2-4-5-3v-11l4 1c2-4-2-8 1-11l3-1 1-2v31-55c0-2-3-4 0-5v2l1-4z" class="st12"/><path d="M463 414v8h1l-1 17q-3 4-8 2 0 4-2 4v-31z" class="st550"/><path d="M464 512v-86z" class="st12"/><path d="M464 426v9l-1 10v-23h1z" style="fill:#a39991"/><path d="M477 413h8l2 1h-34v-1z" class="st93"/><path d="M475 424v-4q0-2 1-1v16h-1z" style="fill:#9f968d"/><path d="M486 452v-28z" class="st474"/><path d="M440 464v48q-3 1-4-1-2 2-5 1v-20h3l1-1 1-4 3-4v-11c-3-1-2 4-5 2-3-1 0-4 0-5l2 1v-6l3-2 1-3z" class="st157"/><path d="m435 414-1 5q-2 1-3-2l1 8-1 1 4-2v-3q6-3 3-7h2v50-39q-2 1-3 5l-3 2-1 6-2 2v6h2c-1 2-4 4-1 5v1l-1 1c-2 10 0 25 0 35l-1 3v-77z" class="st352"/><path d="M441 418v94l-1-3v-91l1-4q3 1 0 4" style="fill:#958b82"/><path d="M430 491v21-66q0-1 0 0z" class="st346"/><path d="M452 414v41l-1 2-2 5c-1 3-2 7-6 4l-1 2v33-54q3-2 4-5 4-4 1-8l1-8q-2-6 2-8v-2q-2-2 0-2z" style="fill:#b7ada4"/><path d="M453 414v35l-1 62v-97z" class="st158"/><path d="M442 452v49l-1 11v-94l1-1q2 17 0 35" class="st166"/><path d="M463 439v27l-2-4c-2 1 1 5-3 3-4 3 0 3 0 5-1 6-4 3-3-1h-1v23h1l-1 2v3l1 2-1 1v10l-1 2v-73 6l1-5h6q1-3 3-1" class="st454"/><path d="M418 481v6l-5-1-3-2-2 2h-1l1-35v-6q-1-5 4-5l4-1v-4q-1-3 2-3z" class="st383"/><path d="M408 446v47h-1v-49z" class="st346"/><path d="M396 475v4l-1 27v-11l-3 2-2-4-4 1v-19l3-1 1-3q0-3 4-1l1-7-1-2v-11l1-1v-16h1z" class="st461"/><path d="M386 460q2-1 3 2l5-1q1-1 1 2v11-3h-3l-1-1c1 3-2 3-1 6h-4v20q0 2 0 0z" class="st297"/><path d="M397 477v8h1l-1 21v6l-1-2v-35z" style="fill:#998e84"/><path d="M386 507v-10z" class="st461"/><path d="M397 473v-11l4-3q-1-6 5-5v7h-1l1 6v29h-1v-13q-4 1-3-3-1 2-4 1l-1 5v-12" class="st383"/><path d="m397 485 1-6 2 1q0-3 3-2v4l3-2v23l-2-4-6-4-1 5q2 4 0 6zm10-5v-17h1z" style="fill:#bab0a6"/><path d="M487 414v4l-1 1-1-1-1 2q-2-1-2-6z" class="st474"/><path d="M430 446v-2q-1-19-1 0v64h-1l-1 4h1l-3-1-6 1v-27l1 3q2-1 2-4c4-1 4-8 3-11q-4-3 0-5 0-4 3-5-1-8 1-14l-1-7v-2l1-26h1z" class="st309"/><path d="M429 414v35q-3 0-2-2l-6 9c-1 5-2 2-2-1v-23l-1-1v-9h1v-8z" class="st352"/><path d="M429 449v23c-2-1 0-7-2-8l-2 4-1 1 2 4v8l-3 4v2l-2 1q-2 2-1 6l-1-2v-37l1 4q0-5 3-7l3-5 1-6 1 2q-1 3 1 6" class="st461"/><path d="M419 414v18h-2v-18z" class="st207"/><path d="M418 486v-5z" class="st221"/><path d="M476 443v-12z" class="st275"/><path d="M430 444v-25z" class="st346"/><path d="M267 484h-58q0 1 0 0z" class="st473"/><path d="M280 483h-10z" style="fill:#282724"/><path d="M296 484h-6zm-6 0h-3z" style="fill:#fefefe"/><path d="M330 458c3 0 1 4 2 5l3 6 1 6 1 1v2q2 2 1 4l2 3v5l-1 2-3-8q0-4-4-5l1-5-1-1q0-2-2-3z" class="st98"/><path d="M341 473v25q3 5 0 10v4l-1-31v-22h1z" style="fill:#82776d"/><path d="M340 479v-14z" class="st232"/><path d="M341 473q3-3 2 3 4 3 3 6l2 5 1 2 2 7v9l-1 2-2-7-4-10-3-4z" style="fill:#9e938a"/><path d="M341 498h3l1 3h2c-3 2-1 3-2 6l4 2v3h-7 2v-3l-3-1z" class="st98"/><path d="M352 505v7h-1zv-2z" style="fill:#80776d"/><path d="M364 461v5q3-2 4 2h5v18q1 0 0 0-3 1-4-2l-4-2-1 2v-1l-1-20v-13h1z" class="st197"/><path d="M364 484c1-1-1-5 1-4 1 3 5 2 5 5l3 1v13l-1-2q-4-1-6-4l-1-4-1-3v10z" class="st430"/><path d="m364 508 1-11q-1 5 3 7l4 3c1 2-2 3 0 5h-3l-1-2q-4 1-4-2" class="st429"/><path d="M363 463v29-2l-1-4v-22h-1l1-5h1z" class="st427"/><path d="M374 492v20l-1-3v-23l1-18q0-2 0 0z" class="st506"/><path d="m364 508 5 1v3h-6v-12z" style="fill:#a79c91"/><path d="M364 483v-8z" class="st430"/><path d="M352 473q2 1 1 5l4 2q0 6 4 8l1 9v13h-1l-1-1v-8q-4-2-5-6l-2-2-1-18z" class="st534"/><path d="m352 482 1 10 3 3v1c0 1 4 5 5 4v10l-3-1-4-9h-1l-1-5z" class="st422"/><path d="M352 475v30l-1-2v-32h1z" style="fill:#897f75"/><path d="M362 509v-13z" class="st422"/><path d="M362 486v10zv-2z" class="st534"/><path d="M375 436q2-1 2 2l3-2h4v52q-1 1-1-2v-20h-5q-2 2-3 0z" class="st141"/><path d="M384 414v49-26l-2 1-2-1-4 3-1-4v-21l4-1z" class="st291"/><path d="m375 458 1 8 2-1 2 1 4-2v42-12h-2q2-4-3-6h-3l-1-2z" class="st133"/><path d="M375 461v39l-1 12v-52z" class="st91"/><path d="M385 426v27-37z" class="st158"/><path d="M375 486v1q0 2 0 0v-26q0-2 0 0zm11-72v12h-1v-9 2h-1v-5z" class="st141"/><path d="M375 500v-13z" class="st133"/><path d="M386 434v72l-1-3v-77h1z" style="fill:#aea49a"/><path d="M125 375q-3-2-3-5l1-1q4 0 7-3c3 0 1 4 3 3v-4q3 2 4-1 4 0 6 2v1l3-2 1 1 3 1 3 1h7l-1-1c5 1 5 0 8-2h7l3 1 2-1 3 2q0-2 5-3l1 1h3q0-2 3-3l-1 3 1 2 2-1c-1-2 2-3 1 0h6l4 2 3 1 5 3h7c-2 2-1 6 1 4l5 7h3v1q3 5 7 5l4 3q4 0 3 4l5 3h4l2 4 4 1 6 4q4 3 8 3l-2 1h-5l-6-2h-1v-1q4-3-5-4-4-5-9-5l-3-4q-6-6-14-8l-5-5q-5 0-4-4h-1l-4-3q-3-2-9-2l-5-4h-2c0 2-7 2-8 0-1 3-7 1-8-2l-3 2-3-1q-3-2-7 1 0-3-2-1 0 4-7 1-4 2-10 1-5 2-4-2l-4 1h-7q-1 3-3 2 0 3-5 0 0 3-2 3z" class="st146"/><path d="M263 414h2l8 1h4l5 1-6 1-7 3c-2 0-3-4-6 0l-1 2h-1l-1 1h-6v2h-6c-2 0-7-3-8 0h-1c0-3-1 0-3 0h-2l-2 1h-8l-2 1q-3-1-4 1h9v1h-39l-6-1h1q5-3 10 0l1-1 26-3 1-2q5-2 10-1l7-1q6 1 8-2 3-2 6 0 2-4 5-3 4 1 5-1z" class="st291"/><path d="m269 413 8 2h-4l-5-1-4-1 1-1q2-1 4 1" class="st557"/><path d="M267 412h3l-1 1-4-1h-4v-2z" style="fill:#2e2926"/><path d="m279 428 5 1h-57v-1z" style="fill:#c4bbb1"/><path d="M418 414v18c-2 1 0 8-1 11v-3q-3 2-7 1l-2 9v1-37z" class="st308"/><path d="m450 414 1 1v4c-4 0-2 4-2 7l-1 8 1 2c0 1-1 7-2 6l1 2-3 2-3 2v4-32l-1-2v-4z" class="st124"/><path d="M438 414h2v6c-2-1-3 2-5 1 2 5-1 4-4 5v-9l1 2 1-1 2-4z" class="st41"/><path d="M407 414h-29v-1h27z" class="st158"/><path d="M408 414v11h-1l-1-3 1-3q-3-3 0-5z" style="fill:#b1a79f"/><path d="M408 426v-11z" class="st218"/><path d="m420 414-1 8v-8z" style="fill:#c4bbb3"/><path d="M440 418v-4h1z" class="st41"/><path d="M331 438q2 1 2 3l2 5 2 5q3 2 2 7l1-3v8l-1 2v-6l-1-1-2-7q-4-6-5-13" class="st422"/><path d="M175 429h14l88 1H174q-1-1 1-1" style="fill:#312c29"/><path d="M300 429q2 0 1 1h-24v-1z" style="fill:#2a2421"/><path d="m314 429 5 1h-18l-1-1z" class="st253"/><path d="M281 430h-4z" style="fill:#564f4b"/><path d="M321 453v7l-1-5-2 5v2l-1 5q-3 3-4 1l-6 4-2-2-1-1-8 1-4 1-2 1-1-1-2 1v-1h-3l-30 2-2-1-1 1-8 1h-1q-2 1-5-1l-10 1h-30q-6 3-11 2-3 3-7 3l-1-1 4-2-1-2 2-1v-2h8l-2-1q2-3 3 0l6-1 2 1 7-1 5 2 5-1h9l1 2q3-2 7-2h9l3 2v-2c3 1 5-3 8-3l8 1 4-1 4 2 9-1q2 2 3 0-1-1 1-2c4 4 5-1 6-2l8-1 1 1h5l4-1 1 2h5l1-1 1-3 3-6q1-3-3-3l2-1v-2h3v-4z" class="st544"/><path d="m300 448-2 1v-3zm1-3-3-3q3-1 3 3" class="st174"/><path d="M341 447q2 1 0 3c1 1 2 8 1 10l-1 1v12l-1-14v-24z" style="fill:#938980"/><path d="M340 451v-12z" class="st190"/><path d="M351 436v12-23z" class="st197"/><path d="m352 428 1 10v-13l2 5q2 2 5 1l1-2 1 14v18h-2l1-11q0 3-2 2l-5-6q1 4-2 4z" class="st54"/><path d="m362 429 1 11v19h-1v14h-1l-1-6q-3-2-3-8l-5-1v-17l1 9c1-1-1-6 1-5l5 7 2-2v11l1-2v-33z" style="fill:#beb4aa"/><path d="m373 421-2 21-3-1-3 1-1 16v3l-1-11v-27l1 16v-14l4 2 1-4c1-2-2-4 3-4zl1-2z" class="st54"/><path d="M341 444q3-2 5 1l2 6 2 1v-1l1-1v-2 16c0 4-2 8-2 1l-2-1-1-6-5-8z" class="st157"/><path d="m341 430 1 6h2l4 6 2 1 1 7v10l-1 2v-10h-3v-1q0-6-6-7z" class="st197"/><path d="m331 415 2 2 2 1 2 4 2 1v4l1 2v8l-1 2v-5l-2-1q0-2-2-3l-3-5-1-1zm42 53-6 1v-2l-3-1v-8h2l5-7 2-6v-1q0-1 0 0z" style="fill:#beb3aa"/><path d="M374 460v8-41z" style="fill:#a1958b"/><path d="M375 438v22h-1v-39h1z" class="st141"/><path d="m378 414-4 2v22-17l-1-5v-2z" style="fill:#c8bfb7"/><path d="M373 444v-23z" class="st443"/><path d="M375 421v-5z" class="st291"/><path d="M352 448v27l-1-4v-35l1 11z" style="fill:#94897f"/><path d="M363 440v23l-1-4v-30l1 10z" class="st158"/><path d="M277 429h-39z" class="st336"/><path d="M117 371v-6l1 1 2-1h5l2-1c1-4 4-2 5-2l2-2 4 1 10 1 1-1h4l3 2h3v-3l3 1 1-1-2-2q3 1 2 2 3-2 5 1l3-1-1 2h2l1-2 4 1 1-2 5-2 7 4h1v-2h6c1 4 1 1 2 0l3 1 1-2h2l2-2 2 2h2c1 1 2 6 4 6l1-2q3 3 6 1l-2 4 4 1q1 1-1 2l3 1h3l-1 2v2h-1c0 2 3 4 1 5h-2l-1-2c-1-2 1-6-2-4l-1-3q-6 1-10-3 0-2-3-3l-1 1-6-3-4 2c-1 0-4-4-7-3v2q-2-2-5 1-2-2-1-3l-2 1c-1 0-3-3-3 0l-4 1-1-2-2 2-1-2q-1 3-3 1l-2 1h-3l-6 3h-2c-1 0-1 3-2 1l-3-5-1 2q-4-2-5 0-4-3-9-1l-2 1-2-1-3 2-4 1v1h-2l-4 1v6h-1l-1-1z" class="st261"/><path d="m108 375 4 2v1h2v1l1-1 7 1 5 1 1 1q2-2 3 1 2 0 0 0h-2l-17-4-5-1z" style="fill:#cfc7bf"/><path d="m117 377 3 1h8l6 2h2q1 3 4 2h2q2 4-2 3-2 0-2-2l-7-2-3-1h-1l-5-1-7-1z" style="fill:#dbd4cb"/><path d="M126 375q2-2 7-1 0-2 2-2l2-2q4 4 8 1l5 1 6 1q3-3 7 0h3q5-6 11-2h3q3 0 3 3 4-3 7 2 3-3 4 0l8-2 2 1v2q5-1 8 1 8 1 12 8l4 2 3 1q10 2 15 11l5 1 6 8q-2 1-5-1 0-5-6-4-5-3-8-9-3 2-3-1l-3-1-2 1-14-10h-4q-4-2-9-1l-6-2h-4q-2 2-4 0l-1 1q-3-2-7-1-3 0-4-3l-2 2-9-1-2 1q-3-3-7-1l-1-1q-1 2-3 1-4 3-8 2s-4-2-3-3q2 0 1 2c2-1 2 2 0 1l-9-2-2-1 2-1-10-2z" class="st90"/><path d="M124 378h-4z" style="fill:#2f2c2a"/><path d="M128 378h-3z" style="fill:#35302e"/><path d="M141 343q1 3-2 3l-1 2q-3 2-7 1l-3-1-3 1h-4l-5 4-4-1-1 8v7l-2-7 1-2v-4l2-4 3-1 1-2 2-1 4-1 2 1c1 1 3-3 6 1l1-2 2-1 1 3q-1-2 2-4 3 1 5-1zm44-7q-2 3-5 3h-4l-3-1v3l-4 1h-5q-3 4-7 1l-4 1q0 3-2 1l-7 2q-2-1-2-4l1-1 1 1q2-3 1 0l8-2 3-1c4 2 3-3 6-2l1 1 4 1 3-2h2l2-2 4 1z" style="fill:#b1a79d"/><path d="M168 342c0 2-5 3-7 3h-2q-1 2-6 2v2l-2-1-4-1-5 2-3-3 2-3h1l3 3 6-2 1 1 1-3h4l2 1c3 2 4-1 5-1z" class="st3"/><path d="M176 339h1zq-1 0 0 0" class="st200"/><path d="M198 341h-1v-1z" class="st166"/><path d="m179 479 4-1 3-3h2l9-2h24v1h2l14-1 3 1h24l2 1h-10l-8 1h-52v1h-7q-4 2-10 2" class="st460"/><path d="m225 478-8 1-2 1-4-1h-9l-5 3h5v1h-2l-4-1q-4-2-10 0h-2v-1l5-2 17-2 10 1c3 1 6-2 9 0" class="st531"/><path d="M209 431h-33q-3 6-1 14v15q0 2-2 0v-4l-1-14 1 4v-9l1-6z" style="fill:#c1b8ae"/><path d="M176 431c-3 10 1 21-1 31l-1 2-1-4c3 1 1-3 1-4v-22z" class="st30"/><path d="M238 430h-41q-2 0 0 0z" class="st191"/><path d="m228 430-15 1v-1z" style="fill:#c3b8af"/><path d="m167 431 3 37 1 4-1 1-1-5v-5c-4-8-1-16-2-24zm1-9v4zc-3 1 0 5 0 8l-2-4 1-7-3-6 2-4 1 2v-2h1z" class="st174"/><path d="m167 408 9-1 2 1h4l-4 1h-4l-4 1h-1l-1 5c2 0 2 5 1 6l-1 1-2-12v-2z" style="fill:#24211f"/><path d="M170 426q1 0 0 0v14l-2-18 1-1h1z" style="fill:#1e1d1a"/><path d="M171 446v4l-1-10v-4z" style="fill:#302b28"/><path d="M171 448v4-6z" style="fill:#13100d"/><path d="M171 456v-3z" class="st364"/><path d="M197 430h-22z" style="fill:#332e2c"/><path d="M171 427v1q3-1 3 1l-1 1zv1l-1-1z" style="fill:#36322f"/><path d="M172 458v-4z" class="st364"/><path d="M173 459v-3z" class="st30"/><path d="m165 443-1-5h1z" class="st283"/><path d="M141 386h3l5 3 1-2q5 2 7 6l-1-1 1 8-1 1q-5-10-15-15" class="st249"/><path d="M149 384c-4-2 3-6 6-2l2-1h4q5 3 11 2h5q4 1 8-1l8 2q3 4 6 1h3q2-2 3 1h8q4 4 9 4l2 1 3 2 2 1q2 3 5 3l1 1c5-2 11 8 3 9q-3-1-3-4l-9-5q-1 2-2 1l-16-4q-3 1-7-1-3 3-7-1-4 2-8-2l-7 1-4-2-5-1-7 1h-1l-3 2z" class="st239"/><path d="m159 393 2-4 2-1v2c1-3 3-1 6-3q2 3 5 0 2 3 5 3l1 1 2-1 1 1 3-2q2 4 6 3h3l4 3 2-2 4 1 2 1v-2l17 6 1-2 8 4q3 1 3 3 3 0 2 2h-9l-8-2-2-2q-4 5-10-1-2 2-3-1l-6 1-7-2-4-1q-4-3-7-1-3-3-7 1-5 0-6-4l-3-1q-2 3-5 0c-2-2 2 1 0 1z" class="st228"/><path d="m161 395-1-2q4 1 5-1h1q1 2 4 2l1 2 3 1q1-2 6-2l2 2 3-2 2 1 3 2v-2h1q2 3 7 3l2 1 3-1h3l2 2 2-1q5 7 9 0l5 5-4 1h-1l-21-1-3-2q-7 4-10-3l-13 2-5 6h-1q-1-7-5-13" class="st86"/><path d="m143 381-2-3 1 2q2-1 1-3l2-1c-2 8 4 3 7 2h1l1-1 2 1 4-1h3l1 2 1-2 9 2 2-3 3 4c3 1 8-2 8 2h-3q-4 2-8 1h-5l-1 1h-5l-6-2c-1-1-2 2-3-1l-2 2-3-2-4 2 2 1h-1z" class="st344"/><path d="M150 387s2 4 0 3l-9-4v-1l1-1h2z" style="fill:#d5cdc4"/><path d="m144 383-1 1h1q-1 2-3 1h-1l2-1v-1h-1l1-1zm-4-1q-2 1-5-1l1-1z" class="st343"/><path d="m131 382 7 1 2 2-11-3z" class="st249"/><path d="M163 431v-4q2 1 1 4z" style="fill:#302d29"/><path d="m277 482-8 1h-60v-1z" style="fill:#9f958c"/><path d="M209 483h-9v-1z" style="fill:#1a1917"/><path d="M205 482h4v1h-7v-1z" class="st498"/><path d="M196 482h-10l4-2q3-1 6 2" class="st295"/><path d="M194 482h-5z" class="st531"/><path d="M227 361q-1 3-2 0z" class="st166"/><path d="m156 359-2-1z" class="st261"/><path d="M263 482h-37zm-39 0h-5z" class="st498"/><path d="M205 482h-3z" class="st531"/><path d="M277 482h-8z" class="st525"/><path d="M440 430v-11zm0 21v-7z" class="st41"/><path d="M441 488v-32z" class="st517"/><path d="M408 425v21l-1-2v-15q-3-3 0-4z" class="st467"/><path d="M407 444v19h-1l-1-35 2 1z" class="st383"/><path d="m395 414 1 2-1 17v9l-1-1v-9q-4 5-8 1v-19z" class="st206"/><path d="M386 448q1-2 4-1c0-4 6-6 5-1v17l-1-1-5 1-3-3z" class="st308"/><path d="M395 442v7-5q-5 0-3 4h-6v-15l5 1 2-3c1-1-1-5 2-6z" class="st458"/><path d="M397 435v42l-1-2v-47z" style="fill:#a2968c"/><path d="M397 414v6l-1-2v15h-1v-19zm-11 46v12-22z" class="st458"/><path d="M397 449v-16q4-3 3-7c-5-3 2-13 4-7q1 5 2 0h1v10l-1 2v35-4c-1 0-6-4 0-2v-7h-3c-2 3 0 8-5 8v2l4-1v4h-3q1-4-2-2v9z" style="fill:#bfb5ac"/><path d="M341 465q2 0 2 3 5 5 6 12l1 3v-1l1-1v15l-1 4v-6l-1-5-2-1-1-3-1-2-1-4-1-3c-1-1 1-4-2-3z" style="fill:#a3988f"/><path d="M364 466v6-11z" class="st443"/><path d="M362 483v-19zm-10-24h1v7q3 2 3 5l5 3 1 11v12l-1-8q-2 0-4-3l-1-6-3-1v1l-1-7z" class="st432"/><path d="M341 461q2-3 3-1 2 6 6 11h1l-1 8 1-8v-1 11l-1 10v-8l-2-3-1-6-5-6-1-3z" style="fill:#a89e94"/><path d="m352 450 1 8h5c-1 1 1 10 3 8v-1l1 8v12l-1-10-6-3-1-5-1 3-1-11z" class="st309"/><path d="M375 458v3-23z" class="st291"/><path d="M386 433v-20z" style="fill:#cbc3ba"/><path d="M386 448v2-16z" class="st206"/><path d="m126 375 1-5 5 3v-3l3 1c0-4 3-1 5-1l3-1 5-1v3l10-1 4-1 5 2-1-2c2-1 5-4 4 0q3 0 2-2l1 1h4q1-1 3 1l1-2q3 0 4 2 3 2 5 1v-2l2-1v2q3 2 6 1v-1q5-1 6 3h2v2q5-2 9 1l1 1h2l2 4q-1 2-4-1l-2-1q-2 1-5-2-3 1-5-1-2-1-3 1c-3-1-5 2-8 1v-2l-2 2-5-3q-2 2-5-1l1-1h-3v-1l-1 1h-1l-6-3q-1 3-2 2l-3 3h-4l-4-1-2 1q-2-2-2 1-4-3-9-2l1-1-4 1-5-1v-1l-1 1-2 1v2z" class="st21"/><path d="M204 375h2q1 2 4 0l2 2h2l3 1q1 2 3 1l1 1v1h4v3h2l3 3 3 1 9 6 3 2c1 1-1 4 4 3v2l2-1 4 4 3 1h1q2 0 3 2 0 2-2 3t-3-1q3 0 3-2l-2-1h-2q-3-1-2-2l-2-1-1-1-6-1-2-4-6-5q-3-3-7-2v-2l-2 1-5-2q-1-4-6-7l-5-1-5-2c-2 0-3 3-4-1z" style="fill:#a1978d"/><path d="m239 407 11 1 1 1 5 1 3 1h1v2l-18-3-3-1h-4q0-2 3-1" style="fill:#24201f"/><path d="m267 412 1-2 3 1-1 1z" class="st199"/><path d="M194 409h8c-1 4 4 5 6 4h5q3-2 5-1 2-2 3-1 5-5 10 0l10-1 9 1h1l1 1h1c0 2-6 1-7 1q0 2-4 1-6 3-15 2-3 4-8 1l-6 4-10 2-7 2q-5-1-9 1l-4 2h-1q-3 0 0 0h28l2 1h-37l-3-1q1-3 5-4l6-5q11-3 5-7-1-2 1-3z" class="st349"/><path d="M253 412q3 0 1 1-2 3-6 3l-3 1q-1 3-4 2l-1 1c-6-2-7-2-13 0l-8 3q0 2-3 1h-3l-18 3-2 1h-10c1-4 3-2 4-2l1-1 8-2 1 2v-2l5-1 11-1 6-5 2 1 5-1 1-1h9q4-3 9-2v-1h6z" class="st370"/><path d="m263 414-1 1q-4 2-7 0-3 2-2 3l1 1c-2 1-4-2-5-1l-7 3h-3l-8 1-5-1-5 2v2l-7 1-21 2q3-3 8-2l6-2 7-1 1 1v-2c2-1 2 3 3 1l-1-1h4l10-4h5l3 2 2-2 2 1 1-3h2l2-1h2l4-3h1z" class="st511"/><path d="M212 429h26-49z" style="fill:#49433f"/><path d="M262 413h2l4 1h-5q-5-2-9-1l-1-1 1-1z" class="st349"/><path d="m268 414 5 1h-3zh-4z" class="st511"/><path d="M182 428h-7z" class="st370"/><path d="M198 408h42l3 1q10 0 18 3h4l-1 1h-2q-5-2-11-2h-1l-21-2-17-1h-9l-1 1-8-1z" style="fill:#dad2ca"/><path d="M407 414v5l-1 4-3-2q1-1-1-3-3 2-2 6l1 1v6q-6 6-4 15v3-35z" style="fill:#c2b8b0"/><path d="m223 474 5-1h3l7-1q2 3 3 0l1 2-1 1-6-1h-9v2l-1-1z" class="st350"/><path d="M341 450q3 2 4 6l1 1q3 3 2 6 3 2 2 6l1-5v6l-1 9v-8c-3 0-4-5-5-7l-1-1q0-3-3-2z" style="fill:#afa59c"/><path d="M373 445v13l-1-6-6 8-2-2v-17l1 1s4-3 4-1h1l2-2z" class="st443"/><path d="M122 379h7l-1 1zm16 4-7-1v-1z" class="st343"/><path d="M188 382v-2c2-1 2 2 3 1h4l2-2 1 1h1q1 2 4 2l2-1v1c2-2 4 2 6 0q2 3 6 0l3 4 4 3 6 4 3-1v1l3-1-1 3q2 2-2 2l-6-4-3-1-3-3q-3 3-4-1l-1-2-8-1q-2 1-3-1l-5 1h-1q-4 3-6-1-4 1-5-2" class="st344"/><path d="M227 393c4 1 1 1 3 2l3 2 2-3 4 1v1l4 4 3 3h4c1 1 6 5 2 5l-13-1h-1q3-1 3-5l-3 2 2-2-2-3h-4v-1l-5-2v-1c0-1-2 1-2-2m-39-11 2 1h4s1 4 4 2l1 1-1 1q-2 1-5-2l-8-2c-3 3-7 0-10 1l-1 2-2-3h4v-1l5 1z" class="st460"/><path d="m167 408 4-7 15-2q0 4 3 4c3 1 5-2 8 0l1 1h2l6 1h-1v1h24-35v1h-16q-4 1-1-1-4-1-7 1z" style="fill:#8f837a"/><path d="M178 409h11v1h1l-1 1 2 2q1 5-5 6l-6 3-3 3q-3-1-5 3v-1q-1-1 2-3l8-6 1-4q-3 0-4-3l-3-1q-3 2-2-1z" class="st218"/><path d="M169 410h2c3 5 6 9 1 14l-1 2h-1l-1-12-1 1-1-5z" class="st166"/><path d="m174 409 2 1 1 2q6 8-3 12l-3 3v-1l1-2 2-4q3-3-1-7v-2l-2-1h-2z" class="st124"/><path d="m167 408 3-2q4-3 9 0l-3 1h2v1q-4-1-9 1z" style="fill:#8a7d73"/><path d="m170 426-1-5-1-6 1-3q2 6 1 14" class="st21"/><path d="M182 408h3v1h-7z" class="st397"/><path d="m183 407 4 1q2 0 0 0h-9v-1z" class="st212"/><path d="M176 410h3q2 3 4 3l1 3q-2 1-2 3c-2 3-9 4-10 8h-1c1-3 7-6 8-9 0-3-4-5-3-8" class="st308"/><path d="m200 385 2-1h1l2-1 2 2 2-2 1 2 3-1h1v1h3l-1 2q3 0 2 2 2 1 2-1l4 3h-5l-5-2-2-2-5-1-3 1v-2q-3 3-4 0" class="st460"/><path d="m227 406 6 1h5q0-1 0 0h1l-3 1h-1l-5-1-6-1z" style="fill:#362f2c"/><path d="m229 406 4 1-6-1z" class="st493"/><path d="M206 405h11l2 1h-14v-1z" class="st228"/><path d="M397 420v15l-1-2v-15z" class="st154"/><path d="M239 408h-3z" class="st460"/><path d="m243 409-3-1z" class="st557"/><path d="M203 408h1l5 1h24l8 1h-5l-1 2q-1-1-4 1l-3-3v-1q-4 1-6 4h-4q-2-2-4 1h-9l-2-1q0 2-2 2c2-3-2-3 0-5q-1-1-1 1-3-3-6-2v-1z" class="st397"/><path d="m230 409 13 1 7 1-9-1-1-1q-6 2-10 0m32 4q-4-2-9-1h-1l-1-1 2-1z" class="st557"/><path d="M194 408h-9v-1h9m12 0h24v1zm6 1-2 1-2 1-1-2-4-1z" style="fill:#d0c9c2"/><path d="M229 409h-17v-1z" class="st557"/><path d="M198 407h-8q4-2 8-1" class="st212"/><path d="M230 407h5v1z" class="st493"/><path d="M206 406h-8l-8 1h-3l-4-1h11l8-1z" style="fill:#2b2421"/><path d="m224 406-18 1v-1z" style="fill:#1e1917"/><path d="M198 406h4l-8 1v-1zm-8 1h-5z" class="st212"/><path d="M194 406h-4zm4 0h-3zm7-1-3-1z" class="st86"/><path d="M171 410h3v3l2 5-4 6 2-5-1-5q-2-1-2-4" style="fill:#b4aaa1"/><path d="M190 408h3-6z" class="st397"/><path d="M115 483h11l-14 48h-3z" style="fill:url(#linear-gradient)"/><path d="M180 484h12l-5 49h-4z" style="fill:url(#linear-gradient1)"/><path d="M200 484h9l-5 46h-4z" style="fill:url(#linear-gradient2)"/><path d="m306 482-9 1 16 48h5z" style="fill:url(#linear-gradient3)"/><path d="M304 513h218v2H304z" style="fill:#191919"/><path d="M337 227q1 3-2 8-4 10-15 11c-11 1-13-5-16-11l-1-8z" style="fill:url(#radial-gradient1)"/><path d="M320 177c-4 0-18 0-28 10-9 9-10 20-11 25l1 15h75c3-15-1-31-12-40-10-9-22-10-25-10" style="fill:url(#linear-gradient4)"/><path d="M512 401c0 2-42 4-83 4s-84-2-84-4 54-2 84-2 83 0 83 2" style="fill:url(#radial-gradient2)"/><path d="M370 312h23l1 12q7 1 16 9l5 8c3 6 3 10 3 39q0 7-4 15-3 6-10 6h-40q-8 0-13-5l-1-1c-2-2-4-6-5-25 0-20 3-27 4-30a35 35 0 0 1 21-16z" style="fill:url(#linear-gradient5)"/><path d="M370 312a39 39 0 0 1 23 0l-11 1z" style="fill:url(#radial-gradient3)"/><path d="m420 373 91-1a33 33 0 0 1-25 29h-39l-6-1a29 29 0 0 1-17-16z" style="fill:url(#linear-gradient6)"/><path d="M501 515h21v15z" style="fill:url(#linear-gradient7)"/><path d="M304 514h15l-14 16z" style="fill:url(#linear-gradient8)"/></svg>